<?xml version="1.0" encoding="UTF-8" standalone="no"?><svg width="100" height="100" viewBox="0 0 100 100" fill="none" xmlns="http://www.w3.org/2000/svg">
<path fill-rule="evenodd" clip-rule="evenodd" d="M56.8919 30.3413C45.9845 30.3413 36.1753 34.773 29.107 40.2609C25.5682 43.0084 22.6646 46.0599 20.6273 49.0297C18.6288 51.9428 17.3086 55.006 17.3086 57.7394C17.3086 60.4727 18.6288 63.5359 20.6273 66.4491C22.6646 69.4189 25.5682 72.4703 29.107 75.2179C36.1753 80.7058 45.9845 85.1375 56.8919 85.1375C67.7993 85.1375 77.6086 80.7058 84.6769 75.2179C88.2156 72.4703 91.1193 69.4189 93.1566 66.4491C95.155 63.5359 96.4753 60.4727 96.4753 57.7394C96.4753 55.006 95.155 51.9428 93.1566 49.0297C91.1193 46.0599 88.2156 43.0084 84.6769 40.2609C77.6086 34.773 67.7993 30.3413 56.8919 30.3413Z" fill="#DDE5E5"/>
<path fill-rule="evenodd" clip-rule="evenodd" d="M33.3359 47.8962C33.3359 39.1665 40.3315 32.0896 48.9609 32.0896C57.5904 32.0896 64.5859 39.1665 64.5859 47.8962C64.5859 56.6259 57.5904 63.7028 48.9609 63.7028C40.3315 63.7028 33.3359 56.6259 33.3359 47.8962ZM48.9609 38.4122C43.7833 38.4122 39.5859 42.6584 39.5859 47.8962C39.5859 53.134 43.7833 57.3801 48.9609 57.3801C54.1386 57.3801 58.3359 53.134 58.3359 47.8962C58.3359 42.6584 54.1386 38.4122 48.9609 38.4122Z" fill="#231F20"/>
<path fill-rule="evenodd" clip-rule="evenodd" d="M16.9752 42.1905C15.2289 44.7361 14.5859 46.7273 14.5859 47.8962C14.5859 49.065 15.2289 51.0563 16.9752 53.6019C18.6633 56.0627 21.1725 58.7302 24.3471 61.1949C30.71 66.1352 39.4337 70.0254 48.9609 70.0254C58.4882 70.0254 67.2118 66.1352 73.5748 61.1949C76.7494 58.7302 79.2586 56.0627 80.9467 53.6019C82.693 51.0563 83.3359 49.065 83.3359 47.8962C83.3359 46.7273 82.693 44.7361 80.9467 42.1905C79.2586 39.7297 76.7494 37.0622 73.5748 34.5974C67.2118 29.6572 58.4882 25.767 48.9609 25.767C39.4337 25.767 30.71 29.6572 24.3471 34.5974C21.1725 37.0622 18.6633 39.7297 16.9752 42.1905ZM20.5418 29.5818C27.7512 23.9843 37.7775 19.4443 48.9609 19.4443C60.1443 19.4443 70.1707 23.9843 77.3801 29.5818C80.9917 32.3859 83.9742 35.5141 86.0813 38.5857C88.1302 41.5724 89.5859 44.8499 89.5859 47.8962C89.5859 50.9424 88.1302 54.22 86.0813 57.2067C83.9742 60.2783 80.9917 63.4065 77.3801 66.2106C70.1707 71.8081 60.1443 76.348 48.9609 76.348C37.7775 76.348 27.7512 71.8081 20.5418 66.2106C16.9302 63.4065 13.9476 60.2783 11.8405 57.2067C9.79165 54.22 8.33594 50.9424 8.33594 47.8962C8.33594 44.8499 9.79165 41.5724 11.8405 38.5857C13.9476 35.5141 16.9302 32.3859 20.5418 29.5818Z" fill="#231F20"/>
</svg>
