<?xml version="1.0" encoding="UTF-8" standalone="no"?><svg width="100" height="100" viewBox="0 0 100 100" fill="none" xmlns="http://www.w3.org/2000/svg">
<path d="M24.6719 24.6738C24.6719 21.7125 25.8482 18.8725 27.9422 16.7786C30.0361 14.6847 32.8761 13.5083 35.8374 13.5083C38.7986 13.5083 41.6386 14.6847 43.7326 16.7786C45.8265 18.8725 47.0029 21.7125 47.0029 24.6738C47.0029 27.6351 45.8265 30.4751 43.7326 32.569C41.6386 34.6629 38.7986 35.8393 35.8374 35.8393C32.8761 35.8393 30.0361 34.6629 27.9422 32.569C25.8482 30.4751 24.6719 27.6351 24.6719 24.6738V24.6738Z" fill="#DDE5E5"/>
<path d="M62.5243 33.5154L62.7588 33.6941C65.1275 35.4499 68.0946 36.1975 71.0125 35.7737C73.9304 35.3499 76.5622 33.7892 78.3336 31.4321C80.105 29.0751 80.8721 26.113 80.4676 23.1924C80.0631 20.2717 78.5198 17.6297 76.1745 15.8427C73.8292 14.0558 70.8722 13.2691 67.949 13.6543C65.0258 14.0395 62.3736 15.5654 60.5712 17.8989C58.7688 20.2324 57.9626 23.1841 58.3285 26.1098C58.6945 29.0355 60.2028 31.6977 62.5243 33.5154V33.5154Z" fill="#DDE5E5"/>
<path d="M42.9211 41.4241C43.6224 40.0963 44.5842 38.9236 45.7491 37.9761C46.914 37.0286 48.258 36.3258 49.7008 35.9098C51.1435 35.4938 52.6554 35.373 54.1459 35.5548C55.6365 35.7365 57.075 36.217 58.3755 36.9676C59.676 37.7182 60.8118 38.7233 61.7149 39.923C62.6179 41.1226 63.2698 42.4921 63.6314 43.9495C63.9929 45.4068 64.0568 46.9222 63.8193 48.4048C63.5817 49.8875 63.0475 51.307 62.2486 52.5784C60.7118 55.0243 58.2868 56.7795 55.4831 57.4751C52.6794 58.1707 49.7152 57.7526 47.2133 56.3087C44.7114 54.8648 42.8664 52.5074 42.0661 49.7318C41.2657 46.9562 41.5722 43.9784 42.9211 41.4241V41.4241Z" fill="#DDE5E5"/>
<path d="M21.8819 41.4224H36.7879C36.1738 43.1698 35.8388 45.0511 35.8388 47.0051C35.8388 51.2927 37.4522 55.2117 40.104 58.1706H38.6302C35.7519 58.1702 32.9439 59.0593 30.5904 60.7162C28.2369 62.3732 26.453 64.717 25.4828 67.4268C23.6089 66.674 21.8543 65.6529 20.2741 64.3954C16.0759 61.0178 13.5078 56.0268 13.5078 49.7965C13.5078 47.5755 14.3901 45.4455 15.9605 43.8751C17.531 42.3046 19.661 41.4224 21.8819 41.4224V41.4224Z" fill="#DDE5E5"/>
<path d="M66.552 58.1706C72.6093 58.1706 77.7677 62.0283 79.6938 67.4268C81.5919 66.6508 83.3505 65.6403 84.908 64.3954C89.1063 61.0178 91.6743 56.0268 91.6743 49.7965C91.6743 47.5755 90.7921 45.4455 89.2216 43.8751C87.6512 42.3046 85.5212 41.4224 83.3002 41.4224H68.3943C69.0084 43.1698 69.3433 45.0511 69.3433 47.0051C69.3485 51.1258 67.8293 55.1028 65.0781 58.1706H66.552Z" fill="#DDE5E5"/>
<path d="M74.289 68.9338C74.6965 69.9163 74.9198 70.9994 74.9198 72.1271C74.9198 78.3574 72.3573 83.3484 68.1535 86.726C64.0167 90.0477 58.4675 91.6667 52.5888 91.6667C46.7102 91.6667 41.1609 90.0477 37.0241 86.726C32.8259 83.3484 30.2578 78.3574 30.2578 72.1271C30.2549 71.0265 30.4695 69.9363 30.8893 68.919C31.3091 67.9016 31.9258 66.9773 32.704 66.1991C33.4822 65.4209 34.4065 64.8042 35.4238 64.3844C36.4412 63.9646 37.5314 63.75 38.632 63.753H66.5457C68.2044 63.7526 69.8258 64.2448 71.2043 65.1671C72.5829 66.0895 73.6565 67.4004 74.289 68.9338Z" fill="#DDE5E5"/>
<path d="M17.5156 17.5215C17.5156 14.6423 18.6594 11.881 20.6953 9.84516C22.7311 7.80928 25.4924 6.66553 28.3716 6.66553C31.2508 6.66553 34.012 7.80928 36.0479 9.84516C38.0838 11.881 39.2275 14.6423 39.2275 17.5215C39.2275 20.4007 38.0838 23.1619 36.0479 25.1978C34.012 27.2337 31.2508 28.3774 28.3716 28.3774C25.4924 28.3774 22.7311 27.2337 20.6953 25.1978C18.6594 23.1619 17.5156 20.4007 17.5156 17.5215V17.5215ZM28.3716 12.0935C26.932 12.0935 25.5514 12.6654 24.5334 13.6833C23.5155 14.7013 22.9436 16.0819 22.9436 17.5215C22.9436 18.9611 23.5155 20.3417 24.5334 21.3596C25.5514 22.3776 26.932 22.9495 28.3716 22.9495C29.8112 22.9495 31.1918 22.3776 32.2097 21.3596C33.2277 20.3417 33.7995 18.9611 33.7995 17.5215C33.7995 16.0819 33.2277 14.7013 32.2097 13.6833C31.1918 12.6654 29.8112 12.0935 28.3716 12.0935V12.0935Z" fill="#231F20"/>
<path d="M54.3033 26.1174C53.1661 25.25 52.2115 24.1664 51.4944 22.9289C50.7773 21.6914 50.3118 20.3244 50.1246 18.9064C49.9374 17.4885 50.0323 16.0475 50.4038 14.6663C50.7753 13.2851 51.416 11.991 52.2892 10.8582C53.1624 9.72541 54.2508 8.77634 55.4919 8.06552C56.733 7.35469 58.1024 6.89612 59.5213 6.71616C60.9402 6.5362 62.3806 6.63839 63.7599 7.01686C65.1392 7.39534 66.4301 8.04263 67.5584 8.92155C69.78 10.6987 71.2152 13.2769 71.5553 16.1015C71.8953 18.9261 71.1129 21.7713 69.3764 24.0249C67.64 26.2785 65.0883 27.7604 62.2704 28.1517C59.4525 28.543 56.5935 27.8125 54.3087 26.1174H54.3033ZM60.9308 12.0915C59.4912 12.0915 58.1106 12.6634 57.0927 13.6813C56.0747 14.6993 55.5029 16.0799 55.5029 17.5195C55.5029 18.9591 56.0747 20.3397 57.0927 21.3576C58.1106 22.3756 59.4912 22.9474 60.9308 22.9474C62.3704 22.9474 63.751 22.3756 64.769 21.3576C65.7869 20.3397 66.3588 18.9591 66.3588 17.5195C66.3588 16.0799 65.7869 14.6993 64.769 13.6813C63.751 12.6634 62.3704 12.0915 60.9308 12.0915V12.0915Z" fill="#231F20"/>
<path d="M14.8021 33.8037H29.2948C28.6977 35.5027 28.3721 37.3319 28.3721 39.2317H14.8021C14.0823 39.2317 13.392 39.5176 12.883 40.0266C12.3741 40.5356 12.0881 41.2259 12.0881 41.9457C12.0881 46.3803 13.8522 49.6697 16.6368 51.906C17.9178 52.9373 19.4539 53.7678 21.1908 54.3757C19.9153 55.7315 18.9324 57.3353 18.3032 59.0872C16.4812 58.3553 14.7752 57.3625 13.2389 56.1398C9.15702 52.8559 6.66016 48.0033 6.66016 41.9457C6.66016 39.7863 7.51797 37.7154 9.04488 36.1884C10.5718 34.6615 12.6427 33.8037 14.8021 33.8037V33.8037Z" fill="#231F20"/>
<path d="M35.2506 33.8031C33.811 36.2979 33.4215 39.2624 34.1676 42.0444C34.9138 44.8265 36.7345 47.1981 39.2293 48.6377C41.7241 50.0773 44.6886 50.4669 47.4707 49.7207C50.2527 48.9746 52.6244 47.1538 54.064 44.659C55.5036 42.1642 55.8932 39.1997 55.147 36.4177C54.4008 33.6356 52.5801 31.264 50.0853 29.8244C47.5905 28.3848 44.626 27.9952 41.8439 28.7414C39.0619 29.4875 36.6902 31.3083 35.2506 33.8031V33.8031ZM43.436 33.9388C44.2313 33.7591 45.0568 33.7604 45.8515 33.9425C46.6463 34.1246 47.39 34.4828 48.0277 34.9908C48.6655 35.4988 49.1809 36.1436 49.5361 36.8775C49.8913 37.6114 50.0771 38.4157 50.0799 39.231C50.0794 40.2523 49.7909 41.2528 49.2474 42.1175C48.7039 42.9821 47.9275 43.6759 47.0073 44.1191C46.0872 44.5623 45.0607 44.7369 44.0458 44.6229C43.0309 44.5088 42.0688 44.1108 41.2699 43.4745C40.4711 42.8381 39.868 41.9893 39.5299 41.0256C39.1919 40.0619 39.1325 39.0224 39.3588 38.0265C39.585 37.0305 40.0876 36.1186 40.8088 35.3956C41.5301 34.6725 42.4407 34.1675 43.436 33.9388Z" fill="#231F20"/>
<path d="M72.6737 51.906C71.3927 52.9373 69.8565 53.7678 68.1196 54.3757C69.3932 55.732 70.3742 57.3357 71.0019 59.0872C72.8474 58.3327 74.5572 57.3503 76.0716 56.1398C80.1534 52.8559 82.6503 48.0033 82.6503 41.9457C82.6503 39.7863 81.7925 37.7154 80.2656 36.1884C78.7386 34.6615 76.6677 33.8037 74.5083 33.8037H60.0156C60.6127 35.5027 60.9384 37.3319 60.9384 39.2317H74.5083C75.2281 39.2317 75.9184 39.5176 76.4274 40.0266C76.9364 40.5356 77.2223 41.2259 77.2223 41.9457C77.2223 46.3803 75.4582 49.6697 72.6737 51.906Z" fill="#231F20"/>
<path d="M58.2233 55.5161C60.3827 55.5161 62.4536 56.374 63.9805 57.9009C65.5074 59.4278 66.3652 61.4987 66.3652 63.6581C66.3652 69.7157 63.8738 74.5683 59.7865 77.8523C55.7644 81.0819 50.369 82.656 44.6533 82.656C38.9377 82.656 33.5423 81.0819 29.5201 77.8523C25.4383 74.5683 22.9414 69.7157 22.9414 63.6581C22.9386 62.5881 23.1472 61.528 23.5554 60.5389C23.9635 59.5498 24.5632 58.6511 25.3198 57.8945C26.0764 57.1379 26.9751 56.5382 27.9642 56.1301C28.9533 55.7219 30.0134 55.5133 31.0834 55.5161H58.2233ZM58.2233 60.9441H31.0834C30.3636 60.9441 29.6733 61.2301 29.1643 61.739C28.6553 62.248 28.3694 62.9383 28.3694 63.6581C28.3694 68.0928 30.1335 71.3821 32.9181 73.6184C35.7732 75.909 39.8767 77.228 44.6533 77.228C49.43 77.228 53.5335 75.909 56.3886 73.6184C59.1732 71.3821 60.9373 68.0928 60.9373 63.6581C60.9373 62.9383 60.6513 62.248 60.1424 61.739C59.6334 61.2301 58.9431 60.9441 58.2233 60.9441V60.9441Z" fill="#231F20"/>
</svg>
