<?xml version="1.0" encoding="UTF-8" standalone="no"?><svg width="100" height="100" viewBox="0 0 100 100" fill="none" xmlns="http://www.w3.org/2000/svg">
<path d="M88.8447 76.3481C89.9067 76.3493 90.9281 76.7559 91.7004 77.485C92.4726 78.214 92.9373 79.2104 92.9996 80.2706C93.0618 81.3307 92.7169 82.3747 92.0352 83.1891C91.3536 84.0034 90.3867 84.5268 89.3322 84.6523L88.8447 84.6814H55.5113C54.4493 84.6802 53.4279 84.2736 52.6556 83.5446C51.8834 82.8155 51.4187 81.8191 51.3565 80.7589C51.2942 79.6988 51.6392 78.6548 52.3208 77.8405C53.0024 77.0261 53.9693 76.5027 55.0239 76.3773L55.5113 76.3481H88.8447ZM20.6613 28.9981C21.3788 28.2807 22.3334 27.8497 23.346 27.786C24.3586 27.7224 25.3597 28.0304 26.1613 28.6523L26.553 28.9981L50.1238 52.5689C50.8413 53.2864 51.2722 54.241 51.3359 55.2536C51.3996 56.2662 51.0916 57.2672 50.4697 58.0689L50.1238 58.4606L26.553 82.0314C25.8032 82.7787 24.797 83.2126 23.7389 83.2449C22.6808 83.2772 21.65 82.9055 20.856 82.2054C20.062 81.5052 19.5642 80.5291 19.4639 79.4753C19.3635 78.4214 19.668 77.3689 20.3155 76.5314L20.6613 76.1398L41.2864 55.5148L20.6613 34.8898C19.8802 34.1084 19.4414 33.0488 19.4414 31.9439C19.4414 30.8391 19.8802 29.7795 20.6613 28.9981Z" fill="#DDE5E5"/>
<path d="M80.5126 68.0146C81.5746 68.0158 82.5961 68.4224 83.3683 69.1515C84.1406 69.8805 84.6053 70.8769 84.6675 71.9371C84.7298 72.9972 84.3848 74.0412 83.7032 74.8556C83.0216 75.67 82.0547 76.1933 81.0001 76.3188L80.5126 76.3479H47.1793C46.1173 76.3468 45.0958 75.9401 44.3236 75.2111C43.5514 74.482 43.0867 73.4856 43.0244 72.4255C42.9622 71.3653 43.3071 70.3213 43.9888 69.507C44.6704 68.6926 45.6373 68.1692 46.6918 68.0438L47.1793 68.0146H80.5126ZM12.3293 20.6646C13.0468 19.9472 14.0014 19.5162 15.014 19.4526C16.0266 19.3889 17.0276 19.6969 17.8293 20.3188L18.221 20.6646L41.7918 44.2354C42.5092 44.9529 42.9402 45.9075 43.0039 46.9201C43.0675 47.9327 42.7595 48.9337 42.1377 49.7354L41.7918 50.1271L18.221 73.6979C17.4712 74.4452 16.465 74.8791 15.4069 74.9114C14.3488 74.9437 13.318 74.572 12.524 73.8719C11.73 73.1717 11.2322 72.1956 11.1318 71.1418C11.0314 70.0879 11.3359 69.0354 11.9835 68.1979L12.3293 67.8063L32.9543 47.1813L12.3293 26.5563C11.5482 25.7749 11.1094 24.7153 11.1094 23.6104C11.1094 22.5056 11.5482 21.446 12.3293 20.6646Z" fill="#231F20"/>
</svg>
