<?xml version="1.0" encoding="UTF-8" standalone="no"?><svg width="100" height="99" viewBox="0 0 100 99" fill="none" xmlns="http://www.w3.org/2000/svg">
<path d="M58.2879 19.8857C33.5173 19.8857 16.6409 44.8144 25.9868 67.5989L29.9822 77.3393C30.3397 78.2109 30.0784 79.2123 29.3395 79.8016L20.891 86.5406C20.1821 87.106 19.9096 88.0543 20.2114 88.9062C20.5132 89.7581 21.3234 90.328 22.2326 90.328H55.7454C76.4127 90.328 93.1668 73.6875 93.1668 53.1602C93.1668 34.7833 78.1677 19.8857 59.6653 19.8857H58.2879Z" fill="#DDE5E5"/>
<path fill-rule="evenodd" clip-rule="evenodd" d="M16.9278 58.6617C7.56173 35.9021 24.4747 11.0005 49.2989 11.0005H50.6382C69.2033 11.0005 84.2533 25.9 84.2533 44.2795C84.2533 64.7429 67.4969 81.3317 46.8269 81.3317H14.2424C12.9163 81.3317 11.7346 80.5032 11.2945 79.2648C10.8544 78.0264 11.2517 76.6478 12.2856 75.8258L20.5002 69.2948C20.8593 69.0092 20.9864 68.524 20.8126 68.1016L16.9278 58.6617ZM49.2989 17.188C28.9133 17.188 15.0245 37.6371 22.7159 56.3272L26.6007 65.7671C27.8173 68.7236 26.9279 72.1201 24.4137 74.1191L23.1243 75.1442H46.8269C64.0451 75.1442 78.0033 61.3256 78.0033 44.2795C78.0033 29.3173 65.7515 17.188 50.6382 17.188H49.2989Z" fill="#231F20"/>
</svg>
