<?xml version="1.0" encoding="UTF-8" standalone="no"?><svg width="100" height="100" viewBox="0 0 100 100" fill="none" xmlns="http://www.w3.org/2000/svg">
<path d="M41.5482 25.6421C29.9613 25.6421 20.0898 34.3058 20.0898 45.5579C20.0898 53.3202 23.7246 59.8554 28.5419 65.2689C33.3426 70.6638 39.5363 75.1921 45.1356 78.9823L54.7965 85.5216C55.8545 86.2378 57.2419 86.2378 58.2999 85.5216L67.9608 78.9823C73.5601 75.1921 79.7538 70.6638 84.5545 65.2689C89.3717 59.8554 93.0065 53.3202 93.0065 45.5579C93.0065 34.3058 83.1351 25.6421 71.5482 25.6421C65.5754 25.6421 60.3197 28.4427 56.5482 32.0664C52.7767 28.4427 47.521 25.6421 41.5482 25.6421Z" fill="#DDE5E5"/>
<path fill-rule="evenodd" clip-rule="evenodd" d="M11.1172 36.5828C11.1172 25.3308 20.9886 16.667 32.5755 16.667C38.5483 16.667 43.804 19.4676 47.5755 23.0913C51.347 19.4676 56.6027 16.667 62.5755 16.667C74.1624 16.667 84.0339 25.3307 84.0339 36.5828C84.0339 44.2906 80.7469 51.0688 76.1929 56.7984C71.6469 62.5181 65.7003 67.3724 60.0066 71.3169C57.8319 72.8235 55.6319 74.2133 53.6183 75.2387C51.7276 76.2016 49.5536 77.0837 47.5755 77.0837C45.5974 77.0837 43.4234 76.2016 41.5327 75.2387C39.5192 74.2133 37.3191 72.8235 35.1444 71.3169C29.4507 67.3724 23.5042 62.5181 18.9581 56.7984C14.4042 51.0688 11.1172 44.2906 11.1172 36.5828ZM32.5755 22.917C23.912 22.917 17.3672 29.2882 17.3672 36.5828C17.3672 42.4307 19.8496 47.8753 23.8509 52.9096C27.86 57.9537 33.2544 62.4042 38.7036 66.1793C40.7656 67.6078 42.7078 68.8233 44.3691 69.6694C46.1532 70.578 47.1866 70.8337 47.5755 70.8337C47.9644 70.8337 48.9978 70.578 50.782 69.6694C52.4433 68.8233 54.3854 67.6078 56.4474 66.1793C61.8967 62.4042 67.291 57.9537 71.3001 52.9096C75.3014 47.8753 77.7839 42.4307 77.7839 36.5828C77.7839 29.2882 71.2391 22.917 62.5755 22.917C57.5999 22.917 52.9538 25.8896 50.0529 29.6625C49.4613 30.4318 48.546 30.8827 47.5755 30.8827C46.6051 30.8827 45.6897 30.4318 45.0982 29.6625C42.1972 25.8896 37.5511 22.917 32.5755 22.917Z" fill="#231F20"/>
</svg>
