<?xml version="1.0" encoding="UTF-8" standalone="no"?><svg width="100" height="99" viewBox="0 0 100 99" fill="none" xmlns="http://www.w3.org/2000/svg">
<path fill-rule="evenodd" clip-rule="evenodd" d="M66.2319 17.1348L66.213 17.1348H45.4614L45.4426 17.1348H41.2539C39.528 17.1348 38.1289 18.5199 38.1289 20.2286C38.1289 21.9372 39.528 23.3223 41.2539 23.3223H42.3364V44.3062C42.3364 50.3055 40.5139 56.1661 37.1056 61.1265L24.2148 79.8879C20.9412 84.6522 23.9588 91.1538 29.7427 91.798L30.1025 91.8378L30.1732 91.846C47.2288 93.7455 64.4458 93.7455 81.5014 91.846L81.5729 91.8377L81.9318 91.798C87.7156 91.1538 90.7333 84.6522 87.4597 79.8879L74.5689 61.1265C71.1606 56.1661 69.338 50.3055 69.338 44.3062V23.3223H70.4206C72.1465 23.3223 73.5456 21.9372 73.5456 20.2286C73.5456 18.5199 72.1465 17.1348 70.4206 17.1348H66.2319Z" fill="#DDE5E5"/>
<path d="M51.0312 56.7183C48.7301 56.7183 46.8646 58.5651 46.8646 60.8433C46.8646 63.1215 48.7301 64.9683 51.0312 64.9683C53.3324 64.9683 55.1979 63.1215 55.1979 60.8433C55.1979 58.5651 53.3324 56.7183 51.0312 56.7183Z" fill="#231F20"/>
<path d="M38.5312 64.9683C36.2301 64.9683 34.3646 66.8151 34.3646 69.0933C34.3646 71.3715 36.2301 73.2183 38.5312 73.2183C40.8324 73.2183 42.6979 71.3715 42.6979 69.0933C42.6979 66.8151 40.8324 64.9683 38.5312 64.9683Z" fill="#231F20"/>
<path fill-rule="evenodd" clip-rule="evenodd" d="M57.2527 8.24954L57.2404 8.24951H36.4887L36.4764 8.24954H32.2812C30.5554 8.24954 29.1562 9.63465 29.1562 11.3433C29.1562 13.0519 30.5554 14.437 32.2812 14.437H33.3637V35.4209C33.3637 41.4202 31.5412 47.2808 28.1329 52.2413L15.2421 71.0026C11.9686 75.767 14.9862 82.2686 20.77 82.9127C38.1117 84.8442 55.6175 84.8442 72.9592 82.9127C78.743 82.2686 81.7606 75.767 78.487 71.0026L65.5962 52.2413C62.1879 47.2808 60.3654 41.4202 60.3654 35.4209V14.437H61.4479C63.1738 14.437 64.5729 13.0519 64.5729 11.3433C64.5729 9.63465 63.1738 8.24954 61.4479 8.24954H57.2527ZM21.4687 76.764C38.346 78.6437 55.3831 78.6437 72.2604 76.764C73.3683 76.6406 73.9463 75.3953 73.3193 74.4827L60.4285 55.7214C59.5107 54.3856 58.6882 52.9958 57.9641 51.562H35.765C35.041 52.9958 34.2185 54.3856 33.3007 55.7214L20.4099 74.4827C19.7828 75.3953 20.3608 76.6406 21.4687 76.764ZM38.2 45.3745H55.5291C54.5964 42.1559 54.1154 38.8067 54.1154 35.4209V14.437L39.6137 14.437V35.4209C39.6137 38.8067 39.1328 42.1559 38.2 45.3745Z" fill="#231F20"/>
</svg>
