<svg fill="none" height="60" viewBox="0 0 152 60" width="152" xmlns="http://www.w3.org/2000/svg" xmlns:xlink="http://www.w3.org/1999/xlink"><clipPath id="a"><path d="m0 0h152v60h-152z"/></clipPath><g clip-path="url(#a)"><path clip-rule="evenodd" d="m152 56v4h-20v-4zm-48 0v4h-20v-4zm15.604 0-1.609 4-1.587-4zm-44.804 0c-2.8696 2.484-6.6544 4-10.88 4h-31.92v-4zm-46.8 0v4h-28v-4zm76-8v4h-20v-4zm18.732 0-1.557 4h-6.333l-1.569-4zm-43.932 0c-.3611 1.4222-.9378 2.7651-1.68 4h-45.12v-4zm-50.8 0v4h-28v-4zm124 0v4h-20v-4zm-8-8v4h-12v-4zm-40 0v4h-12v-4zm21.87 0-1.572 4h-12.595l-1.584-4zm-47.63 0c.3595 1.2753.56 2.6149.56 4h-14.8v-4zm-26.24 0v4h-12v-4zm-32 0v4h-12v-4zm124-8v4h-12v-4zm-40 0v4h-12v-4zm25.004 0-1.564 4h-18.92l-1.552-4zm-55.684 0c1.3795 1.1291 2.5675 2.4822 3.48 4h-36.8v-4zm-53.32 0v4h-12v-4zm96.879-8 1.121 3.2331 1.12-3.2331h24.88v4h-12v-3.6756l-1.36 3.6756h-25.32l-1.32-3.676v3.676h-12v-4zm-96.879 0v4h-12v-4zm56.8 0c-.9125 1.5178-2.1005 2.8705-3.48 4h-33.32v-4zm67.2-8v4h-23.493l1.416-4zm-29.91 0 1.416 4h-23.506v-4zm-35.29 0c0 1.3847-.2005 2.7244-.56 4h-14.24v-4zm-26.8 0v4h-12v-4zm-32 0v4h-12v-4zm91.32-8 1.39 4h-28.7096l-.0004-4zm40.68 0v4h-28.725l1.445-4zm-74.88 0c.7422 1.23491 1.3189 2.5778 1.68 4h-46.8v-4zm-49.12 0v4h-28v-4zm80.511-8 1.417 4h-25.9276l-.0004-4zm43.489 0v4h-25.895l1.383-4zm-88.08 0c4.1949 0 8.0108 1.516 10.88 4h-42.8v-4zm-35.92 0v4h-28v-4z" fill="#231f20" fill-rule="evenodd"/></g></svg>