<svg fill="none" height="59" viewBox="0 0 270 59" width="270" xmlns="http://www.w3.org/2000/svg"><path clip-rule="evenodd" d="m33.1826 22.2393v22.2344h4.4265 4.4265v-13.1806-13.1813l2.1424-1.271c1.179-.6997 3.3177-1.2718 4.7541-1.2718 4.487 0 4.9075 1.3785 4.9075 16.0999v12.8048h4.4265 4.4265v-11.8821c0-12.5209-.5548-15.3506-3.5294-18.0121-3.1826-2.8467-11.0906-2.4999-14.8169.65l-2.1594 1.8255-.2597-6.3628c-.2501-6.10777-.3564-6.44869-2.6699-8.52464-1.325-1.189544-3.2336-2.1626688-4.2421-2.1626688h-1.8326zm37.1331-20.29631c-1.1346 1.73873-1.1523 2.13969-.1733 3.89102.8469 1.51564 1.6562 1.95292 3.6164 1.95292s2.7695-.43728 3.6165-1.95292c.979-1.75133.9613-2.15229-.1734-3.89102-.8905-1.365934-1.9071-1.9380988-3.4431-1.9380988s-2.5526.5721648-3.4431 1.9380988zm169.4363 20.29631v22.2344h4.427 4.426v-7.6531c0-7.1321.121-7.7672 1.782-9.334l1.781-1.6809.907 1.7372c.499.9554 2.053 3.0246 3.454 4.5981 3.203 3.5975 4.871 7.5404 4.333 10.2434l-.416 2.0893h4.777 4.777v-2.9757c0-3.8147-2.839-7.0491-9.96-11.3448-6.673-4.0259-6.877-5.1776-1.699-9.5615 2.152-1.8217 5.235-4.1978 6.85-5.2792l2.938-1.967h-4.136c-4.022 0-4.15.063-4.587 2.262-.297 1.4927-2.146 3.8844-5.441 7.0379l-4.991 4.7767-.369-10.9289c-.399-11.83094-1.037-13.89207-4.84-15.633026-4.171-1.909194-4.013-2.754104-4.013 21.379126zm-74.881-10.9934c-.812.4506-2.147 1.4281-2.967 2.1715-1.36 1.2318-1.753 1.2585-4.427.3017-4.477-1.6017-9.836-1.3845-13.654.5529-8.473 4.3001-8.811 14.1944-.628 18.3885 2.58 1.3222 3.971 1.5268 8.329 1.2244 2.877-.1994 5.974-.6048 6.883-.9005 2.277-.7411 3.217 1.6394 1.235 3.1299-1.091.8197-2.766.9509-7.39.5759-7.418-.6011-11.334.3602-13.886 3.4077-2.18 2.6015-2.545 6.9075-.862 10.1567 4.332 8.3639 18.075 10.9712 25.047 4.7522 1.76-1.5704 4.127-6.6273 4.148-8.8655.014-1.4749-.353-1.6676-3.176-1.6676h-3.192l.747 3.6642c1.245 6.1056-1.084 8.9353-7.358 8.9353-7.505 0-11.719-7.1795-7.308-12.4468 1.96-2.3391 3.497-3.0862 10.188-4.9502 4.811-1.3407 6.497-3.4167 5.022-6.1863-.67-1.2585-.484-2.03 1.031-4.2735 2.333-3.453 2.436-7.7005.274-11.215l-1.575-2.5599 3.235.2379 3.235.2386.228-2.7681c.246-2.9683-.481-3.40338-3.179-1.904zm-155.6652 2.7237c-6.01708 2.8801-9.2329244 8.2845-9.20562765 15.4721.03762515 9.9766 6.88540765 16.5061 16.35222765 15.5923 3.9484-.381 8.7482-3.2307 10.8464-6.4391 1.0734-1.6431.8912-1.5942-2.0628.5559-6.4221 4.6729-12.9113 2.4317-15.18064-5.2437-2.83517-9.5911.69344-20.5616 6.61314-20.5616 1.9735 0 3.5434 1.6646 5.0676 5.3733.6286 1.529 1.4298 2.7793 1.7802 2.7793.3505 0 1.5648-.9723 2.698-2.1611l2.0605-2.1605-3.1317-2.0826c-4.1292-2.7452-11.3761-3.2596-15.8373-1.1243zm84.1034-.0067c-6.023 2.8971-9.233 8.2942-9.2057 15.4788.0266 7.0958 3.1502 12.1674 9.0079 14.6258 5.7515 2.4147 12.1236.9665 16.5646-3.7643 3.198-3.4063 2.594-4.1763-.875-1.1161-2.182 1.9247-3.25 2.322-6.239 2.322-3.0152 0-3.9654-.361-5.7972-2.2012-2.816-2.829-4.1639-8.3038-3.5825-14.5532.4972-5.3488 1.9388-8.6447 4.5261-10.3479 3.0096-1.9803 4.9616-1.1206 7.2666 3.2003 1.142 2.1404 2.325 3.891 2.629 3.891s1.48-.9723 2.614-2.1611l2.06-2.1605-3.03-2.0144c-4.099-2.7252-11.595-3.2892-15.9388-1.1992zm86.7198-.3913c-6.217 1.9914-10.978 10.379-10.103 17.8016 1.243 10.5428 11.564 16.7225 20.766 12.4334 2.965-1.3822 8.725-6.7444 7.244-6.7444-.436 0-1.224.5225-1.751 1.1606-2.633 3.1877-9.222 4.3246-12.342 2.1294-2.206-1.5527-4.031-5.2511-3.468-7.0313.512-1.6231 1.575-1.9285 8.636-2.4814 2.728-.2134 5.9-.8767 7.05-1.4741 4.166-2.1641 5.064-7.7894 1.854-11.6219-3.828-4.5707-11.242-6.2998-17.886-4.1719zm33.533.398c-6.017 2.8801-9.233 8.2845-9.205 15.4721.045 11.9629 10.841 19.2358 21.128 14.233 3.19-1.5512 7.327-5.6801 6.511-6.4991-.242-.2423-.67-.106-.952.3039-2.562 3.7205-8.458 5.1146-12.579 2.9735-3.193-1.6587-4.937-6.7482-2.874-8.3898.508-.4039 3.673-.9146 7.034-1.1347 6.979-.4566 9.354-1.6261 10.912-5.3726 1.539-3.702.103-7.4381-3.96-10.3034-4.125-2.9075-11.402-3.4908-16.015-1.2829zm-144.2297 14.94v15.5641h4.4265 4.4265v-11.8821c0-13.368-.675-16.1851-4.332-18.0854-4.6265-2.4028-4.521-2.7386-4.521 14.4034zm84.4947-13.8794c5.004 4.3238 3.254 18.3263-2.29 18.3263-4.421 0-6.217-2.8898-6.217-10.0055 0-8.7685 3.747-12.4342 8.507-8.3208zm36.898.1348c2.084 2.0923 2.367 5.3274.745 8.4795-.729 1.4156-2.522 2.7059-5.662 4.0741-2.527 1.1006-5.024 2.5695-5.549 3.264-.813 1.0739-.958.5447-.975-3.5553-.026-6.4443 1.034-9.8936 3.74-12.1815 2.827-2.3894 5.377-2.4161 7.701-.0808zm33.081-.982c1.006.4603 2.221 1.7877 2.701 2.9498 1.726 4.1882-1.003 8.6966-6.498 10.7325-1.922.7123-4.02 1.7395-4.661 2.2813-1.854 1.5697-2.155 1.2088-2.155-2.5844 0-5.1391 1.891-10.8897 4.174-12.6936 2.182-1.7247 3.795-1.8959 6.439-.6856z" fill="#231f20" fill-rule="evenodd"/></svg>