<svg fill="none" height="66" viewBox="0 0 254 66" width="254" xmlns="http://www.w3.org/2000/svg" xmlns:xlink="http://www.w3.org/1999/xlink"><clipPath id="a"><path d="m0 0h254v66h-254z"/></clipPath><mask id="b" height="66" maskUnits="userSpaceOnUse" width="254" x="0" y="0"><path d="m253.556 0h-253.08725v66h253.08725z" fill="#fff"/></mask><g clip-path="url(#a)"><g fill="#231f20" mask="url(#b)"><path d="m108.391 46.0113v-26.4h10.866c1.619 0 3.039.3111 4.279.9429 1.24.6316 2.196 1.4802 2.878 2.5456.681 1.0655 1.022 2.2346 1.022 3.4887 0 1.254-.322 2.3477-.966 3.281-.643.9335-1.448 1.5935-2.404 1.9989 1.183.4243 2.262 1.2163 3.237 2.3571.975 1.1409 1.458 2.5175 1.458 4.1298 0 1.386-.369 2.6589-1.117 3.828-.748 1.1692-1.789 2.1025-3.142 2.7909-1.354.6883-2.888 1.0371-4.601 1.0371zm10.753-15.7646c1.06 0 1.912-.3112 2.556-.924.643-.6129.965-1.4143.965-2.3949 0-.9805-.322-1.782-.965-2.4136-.644-.6318-1.496-.9429-2.556-.9429h-6.02v6.6754zm.643 11.8046c1.212 0 2.216-.3866 3.011-1.1691.795-.7827 1.192-1.7349 1.192-2.8664 0-1.1314-.397-2.0836-1.192-2.8474-.795-.7637-1.799-1.1502-3.011-1.1502h-6.663v8.0331z"/><path d="m135.974 45.4267c-1.07-.6412-1.913-1.5557-2.518-2.7342-.606-1.1787-.909-2.574-.909-4.1863v-10.6732h4.278v10.4092c0 1.254.36 2.2533 1.079 2.9983.719.7448 1.657 1.1125 2.822 1.1125 1.315 0 2.395-.4432 3.256-1.3388.862-.8957 1.287-2.046 1.287-3.4509v-9.7303h4.316v18.1783h-4.316v-2.5646h-.037c-.484.7543-1.222 1.4331-2.216 2.0366-.994.6034-2.13.9052-3.389.9052-1.362 0-2.584-.3207-3.653-.9618z"/><path d="m156.04 45.3515c-1.325-.6883-2.338-1.4803-3.048-2.3571l2.651-2.6778c.501.6035 1.183 1.1503 2.025 1.6406s1.732.7354 2.669.7354c.938 0 1.657-.1885 2.158-.5657.503-.3772.758-.858.758-1.4332 0-.528-.265-.9333-.795-1.2256-.53-.2924-1.392-.6129-2.575-.9617-1.241-.3772-2.262-.7543-3.086-1.1315-.823-.3772-1.524-.9334-2.121-1.6783-.596-.7449-.889-1.6877-.889-2.8474 0-.9806.274-1.8763.813-2.6966.54-.8202 1.335-1.4709 2.368-1.9611 1.031-.4903 2.243-.7354 3.635-.7354 1.485 0 2.82.2545 3.993.7731 1.175.5185 2.064 1.1032 2.67 1.7537l-2.612 2.6777c-.426-.4054-.986-.7449-1.666-1.0371-.682-.2923-1.411-.4338-2.196-.4338-.834 0-1.477.1604-1.932.4904-.454.33-.682.7165-.682 1.1691 0 .4997.256.8957.778 1.1692.52.2733 1.372.6033 2.555.9805 1.288.4055 2.329.792 3.124 1.1692.795.3771 1.485.9334 2.081 1.6594.597.726.891 1.6877.891 2.8662 0 1.0278-.294 1.98-.871 2.8475-.577.8674-1.411 1.5557-2.479 2.0743-1.07.5186-2.339.7731-3.806.7731-1.62 0-3.086-.3489-4.411-1.0371z"/><path d="m172 23.9863c-.502-.4809-.758-1.0655-.758-1.7727 0-.707.256-1.2916.758-1.7725.501-.4808 1.097-.7165 1.779-.7165.681 0 1.24.2357 1.741.7165.503.4809.758 1.0655.758 1.7725 0 .7072-.255 1.2918-.758 1.7727-.501.4808-1.088.7165-1.741.7165s-1.278-.2357-1.779-.7165zm3.9 22.0251h-4.28v-18.1783h4.28z"/><path d="m180.859 46.0115v-18.1783h4.278v2.5645h.076c.483-.7542 1.222-1.4331 2.216-2.0365.994-.6035 2.111-.9051 3.35-.9051 1.364 0 2.584.3205 3.674.9616 1.087.6412 1.931 1.5558 2.537 2.7344.604 1.1785.908 2.574.908 4.1863v10.6731h-4.317v-10.4091c0-1.254-.36-2.2535-1.079-2.9983-.719-.7449-1.647-1.1126-2.783-1.1126-1.316 0-2.403.4431-3.274 1.3389-.871.8957-1.308 2.046-1.308 3.4508v9.7303z"/><path d="m205.908 45.1252c-1.477-.8391-2.641-1.9895-3.483-3.432-.844-1.4426-1.269-3.036-1.269-4.7708 0-1.7349.425-3.3283 1.269-4.7709.842-1.4426 1.988-2.5929 3.426-3.432 1.439-.8391 3.001-1.2634 4.695-1.2634s3.266.3865 4.638 1.1691c1.372.7825 2.452 1.8574 3.237 3.2245.786 1.3672 1.174 2.8947 1.174 4.5824 0 .6505-.067 1.2916-.189 1.9234h-13.783c.181 1.1314.768 2.1026 1.78 2.9229 1.013.8202 2.225 1.2257 3.636 1.2257 1.863 0 3.52-.6884 4.96-2.0744l2.536 2.7532c-.71.858-1.741 1.6028-3.105 2.244-1.363.6412-2.916.9617-4.656.9617-1.742 0-3.389-.4242-4.866-1.2634zm9.257-9.9755c-.255-1.2068-.776-2.1685-1.571-2.8851-.795-.7165-1.808-1.0749-3.048-1.0749s-2.356.3489-3.2 1.056c-.842.7072-1.429 1.6689-1.76 2.904z"/><path d="m224.911 45.3515c-1.325-.6883-2.338-1.4803-3.048-2.3571l2.651-2.6778c.502.6035 1.183 1.1503 2.026 1.6406.842.4903 1.731.7354 2.669.7354.937 0 1.656-.1885 2.159-.5657.501-.3772.756-.858.756-1.4332 0-.528-.265-.9333-.795-1.2256-.53-.2924-1.392-.6129-2.575-.9617-1.239-.3772-2.262-.7543-3.085-1.1315-.824-.3772-1.524-.9334-2.12-1.6783-.597-.7449-.891-1.6877-.891-2.8474 0-.9806.275-1.8763.815-2.6966.54-.8202 1.335-1.4709 2.366-1.9611 1.033-.4903 2.243-.7354 3.635-.7354 1.486 0 2.821.2545 3.995.7731 1.173.5185 2.063 1.1032 2.669 1.7537l-2.613 2.6777c-.425-.4054-.984-.7449-1.666-1.0371-.681-.2923-1.409-.4338-2.196-.4338-.833 0-1.476.1604-1.93.4904-.456.33-.682.7165-.682 1.1691 0 .4997.255.8957.776 1.1692.52.2733 1.372.6033 2.556.9805 1.287.4055 2.328.792 3.123 1.1692.795.3771 1.487.9334 2.083 1.6594s.89 1.6877.89 2.8662c0 1.0278-.294 1.98-.871 2.8475-.578.8674-1.411 1.5557-2.48 2.0743-1.07.5186-2.339.7731-3.805.7731-1.619 0-3.086-.3489-4.412-1.0371z"/><path d="m241.989 45.3515c-1.325-.6883-2.337-1.4803-3.048-2.3571l2.651-2.6778c.502.6035 1.184 1.1503 2.026 1.6406s1.733.7354 2.67.7354c.936 0 1.657-.1885 2.158-.5657s.758-.858.758-1.4332c0-.528-.265-.9333-.796-1.2256-.53-.2924-1.391-.6129-2.575-.9617-1.24-.3772-2.262-.7543-3.086-1.1315s-1.524-.9334-2.12-1.6783-.89-1.6877-.89-2.8474c0-.9806.274-1.8763.814-2.6966.54-.8202 1.335-1.4709 2.366-1.9611 1.033-.4903 2.245-.7354 3.636-.7354 1.485 0 2.82.2545 3.994.7731 1.174.5185 2.063 1.1032 2.669 1.7537l-2.613 2.6777c-.425-.4054-.984-.7449-1.665-1.0371-.681-.2923-1.41-.4338-2.196-.4338-.834 0-1.477.1604-1.931.4904s-.682.7165-.682 1.1691c0 .4997.255.8957.776 1.1692.522.2733 1.373.6033 2.556.9805 1.287.4055 2.329.792 3.124 1.1692.796.3771 1.486.9334 2.082 1.6594s.89 1.6877.89 2.8662c0 1.0278-.294 1.98-.871 2.8475-.577.8674-1.41 1.5557-2.48 2.0743-1.069.5186-2.337.7731-3.805.7731-1.619 0-3.086-.3489-4.412-1.0371z"/><path d="m65.9326 41.9102c-1.0413 0-1.7701 0-2.3665-.0849v-7.4391h2.0825c3.0385 0 5.4808 1.0465 5.4808 3.6771 0 2.7814-2.4327 3.8374-5.1968 3.8374m-2.3665-17.2354h2.6031c2.7736 0 4.2313.9429 4.2313 2.9417 0 1.9989-1.5809 2.4515-4.8276 2.4515h-2.0068v-5.4026zm-27.1196-5.0066 1.5714 5.0066h6.4082v21.3746h6.0866v-21.3652h7.0142v21.2615c1.3536.198 3.6065.396 6.5978.396 5.3671 0 8.6517-.8674 10.6111-2.3854 1.6754-1.3295 2.8018-3.2151 2.8018-5.6383 0-3.3755-2.1297-5.6572-5.2061-6.4303v-.0755c3.048-1.1408 4.288-3.1585 4.288-5.478 0-2.3194-1.3252-4.2145-3.2089-5.2045-2.0068-1.1409-4.2501-1.4425-7.9798-1.4425h-28.9938zm-3.7106 15.1423-1.6849-5.5817c-.4828-1.5746-.9655-3.5356-1.3631-5.1008h-.0852c-.3975 1.5652-.7951 3.564-1.2306 5.1008l-1.6092 5.5817h5.9635zm-6.8533 4.4597-1.9216 6.7792h-6.2852l8.1973-26.3812h8.0082l8.4151 26.3812h-6.6072l-2.0825-6.7792h-7.7336z"/><path d="m89.4477 5.65715v54.68565h-83.29945v-54.68565zm5.6795-5.65715h-94.65845v66h94.65845z"/></g></g></svg>