<svg fill="none" height="42" viewBox="0 0 305 42" width="305" xmlns="http://www.w3.org/2000/svg" xmlns:xlink="http://www.w3.org/1999/xlink"><clipPath id="a"><path d="m0 0h305v42h-305z"/></clipPath><g clip-path="url(#a)" fill="#231f20"><path d="m63.8664 0h-15.86l-19.3736 41.4043h11.4436c1.3725.0186 2.7183-.3781 3.8597-1.1378 1.1414-.7596 2.0247-1.8465 2.5331-3.1169z"/><path d="m40.0044.00020249c-1.3711-.01952899-2.7159.37543451-3.8571 1.13281751-1.1413.75738-2.0254 1.84161-2.5357 3.10973l-17.385 37.14965h7.32l19.3492-41.39219751z"/><path d="m19.9105 22.5864h-18.03161c-.24673 0-.49104.0484-.71899.1425-.227947.0941-.435064.232-.609527.4058-.174463.1739-.312854.3803-.407273.6074-.0944182.2271-.14301477.4706-.14301477.7164-.00237737.2463.04500327.4905.13932077.7181.094317.2277.233642.4341.409679.6069l12.200015 12.1563z"/><path d="m214.719 10.3085c-4.321.0288-8.594.9002-12.578 2.565l-3.001 6.3821c3.375-1.6063 7.046-2.5002 10.784-2.6258 4.136 0 4.319 2.0666 3.404 4.0237l-.244.5106c-9.577 0-18.678 3.574-22.423 11.5363-2.44 5.1057-.61 9.2996 5.185 9.2996 3.638-.0711 7.147-1.3551 9.967-3.6469h.171l-.866 3.0148h8.381c.785-2.4663 1.752-4.8717 2.891-7.1966l5.112-10.9406c3.16-6.7346 3.465-12.9465-6.807-12.9465m-5.954 20.6657c-.243.5358-.542 1.0451-.891 1.5196-.707.9049-1.6 1.6501-2.617 2.1865-1.018.5364-2.138.8518-3.287.9255-1.867 0-3.05-1.1549-1.782-3.8536 1.818-3.89 6.332-4.9719 10.541-4.984zm-90.805-20.0092-8.759 18.7085c-.375.8265-.877 1.5895-1.489 2.2611-.651.8029-1.459 1.4651-2.376 1.9458-.917.4808-1.922.7701-2.955.8501-3.0135 0-2.9891-2.6379-1-6.8926l7.917-16.8729h-9.3937l-8.54 18.2344c-4.148 8.8741-2.2936 12.9222 4.0382 12.9222 4.0659-.1541 7.9495-1.7193 10.9805-4.4249h.183l-1.33 3.817h8.345c.768-2.4704 1.731-4.8767 2.879-7.1965 1.293-2.7595 10.894-23.3522 10.894-23.3522zm38.516 24.5435c-3.66 0-3.428-4.1453-1.001-9.3482 2.062-4.3884 5.686-9.2995 9.76-9.2995 3.819 0 2.867 4.8625.83 9.2752-2.367 5.057-6.1 9.3725-9.504 9.3725zm-3.111 6.5158c6.905 0 16.811-4.2425 22.338-16.0585 4.38-9.3725 1.647-15.6451-7.174-15.6451-8.601 0-17.763 5.7134-22.594 16.022-4.612 9.8709-1.22 15.6816 7.32 15.6816zm102.48-6.5158c-3.66 0-3.428-4.1453-.988-9.3482 2.049-4.3884 5.673-9.2995 9.76-9.2995 3.83 0 2.879 4.8625.829 9.2752-2.367 5.057-6.1 9.3725-9.504 9.3725zm-3.111 6.5158c6.917 0 16.811-4.2425 22.338-16.0585 4.392-9.3725 1.659-15.6451-7.174-15.6451-8.54 0-17.763 5.7134-22.582 16.022-4.611 9.8709-1.22 15.6816 7.32 15.6816zm52.289-31.5334c-.634-.1274-1.281-.1805-1.928-.1581-2.769 0-6.954 1.7992-10.333 5.7378h-.244l2.001-5.1056h-8.077c-1.122 2.7351-2.44 5.8228-4.257 9.725l-9.76 20.8237h4.989c1.372.0169 2.718-.3805 3.859-1.14 1.141-.7594 2.024-1.8453 2.534-3.1147l5.234-11.1959c.406-.8811.892-1.7234 1.452-2.5164.923-1.3566 2.152-2.4796 3.588-3.2795 1.436-.7998 3.04-1.2545 4.683-1.3277.753-.018 1.506.0473 2.245.1945zm-68.881 24.1667c-2.44 0-3.014-1.3372-1.318-4.9476l5.759-12.3022h5.636l3.026-6.4428h-5.637l3.794-8.12044h-4.88c-1.372-.01688-2.717.38055-3.858 1.13999s-2.025 1.84531-2.534 3.11471l-1.782 3.86574h-4.05l-3.026 6.4671h4.051l-6.222 13.3719c-2.123 4.5343-2.44 7.1844-1.428 8.8984.879 1.4953 2.953 2.3462 5.856 2.3462 2.107.0215 4.208-.2112 6.259-.6929l3.209-6.8805c-.936.2118-1.896.3017-2.855.2675m-40.602-31.92245c-1.376-.02013-2.725.37566-3.871 1.1352-1.146.75955-2.033 1.84717-2.546 3.1195l-16.055 34.34155h4.99c1.37.0161 2.713-.3802 3.854-1.1371 1.14-.757 2.025-1.8393 2.538-3.1055l16.068-34.35365zm-43.651 7.67065c-.635-.1274-1.282-.1805-1.928-.1581-2.769 0-6.942 1.7992-10.333 5.7378h-.244l2.013-5.1056h-8.089c-1.122 2.7351-2.44 5.8228-4.258 9.725l-9.76 20.8237h4.99c1.371.0178 2.715-.3794 3.854-1.1391s2.02-1.8461 2.527-3.1156l5.246-11.1959c.406-.8811.891-1.7234 1.451-2.5164.924-1.3566 2.153-2.4796 3.589-3.2795 1.436-.7998 3.039-1.2545 4.683-1.3277.753-.018 1.506.0473 2.245.1945zm-56.5109 2.3461c2.4888-6.00517 2.501-12.8127-10.8458-12.8127h-11.9316l-19.3736 41.3922h4.88c1.3711.0195 2.7159-.3754 3.8571-1.1328 1.1413-.7574 2.0254-1.8416 2.5357-3.1098l5.1728-11.0379c.8673.0898 1.7389.1304 2.6108.1216 4.88 0 10.2968-.4863 14.7864-3.4038 3.726-2.4144 6.6177-5.9111 8.2838-10.0168m-19.947 6.4307c-.8175.0267-1.6356-.0345-2.44-.1823l5.9292-12.59395c1.1314-.10478 2.2689-.12916 3.4038-.07294 4.575 0 5.6974 2.28539 3.8674 6.33339-.9394 2.0296-2.4652 3.7337-4.3821 4.8945-1.9168 1.1607-4.1376 1.7252-6.3783 1.6213z"/></g></svg>