<svg fill="none" height="49" viewBox="0 0 267 49" width="267" xmlns="http://www.w3.org/2000/svg" xmlns:xlink="http://www.w3.org/1999/xlink"><mask id="a" height="49" maskUnits="userSpaceOnUse" width="267" x="0" y="0"><path d="m267 0h-267v48.6463h267z" fill="#fff"/></mask><g fill="#231f20" mask="url(#a)"><path d="m47.6449.233887h-47.527712v48.267813h47.527712z"/><path d="m240.293 11.603h7.5v8.4771h.474l4.874-8.4771h8.414l-6.284 10.9861 6.993 13.3731h-8.922l-4.955-10.1437h-.594v10.1437h-7.5z"/><path d="m225.37 30.1153c2.64 0 3.596-1.8376 3.735-3.6123h7.091c-.168 5.4862-3.933 9.9409-10.684 9.9409-7.744 0-11.438-4.4547-11.438-11.0625v-3.1981c0-6.6167 3.699-11.0715 11.438-11.0715 6.751 0 10.52 4.4548 10.684 9.959h-7.091c-.139-1.7838-1.095-3.6214-3.735-3.6214-2.572 0-3.796 1.7071-3.796 4.3872v3.8917c0 2.6799 1.224 4.387 3.796 4.387z"/><path d="m203.968 25.7691v-3.9638c0-2.8196-1.407-4.3511-3.948-4.3511-2.532 0-3.938 1.527-3.938 4.3511v3.9638c0 2.8152 1.406 4.3512 3.938 4.3512 2.541-.0046 3.948-1.536 3.948-4.3512zm-15.39-.4505v-3.0628c0-6.6123 3.942-11.1391 11.442-11.1391 7.508 0 11.448 4.5268 11.448 11.1391v3.0628c0 6.6169-3.94 11.1302-11.448 11.1302-7.495 0-11.442-4.5133-11.442-11.1302z"/><path d="m169.387 11.603h7.495v18.0307h9.732v6.3285h-17.227z"/><path d="m157.37 30.3678c1.193 0 1.885-.9007 1.885-2.0718 0-1.0855-.732-2.0136-1.925-2.0136h-4.98v4.09h5.02zm-1.49-9.2563c1.184 0 1.814-.8692 1.814-2.0359 0-1.0495-.705-1.8782-1.814-1.8782h-3.477v3.9098h3.477zm-10.618-9.5085h12.436c4.489 0 7.124 2.644 7.124 6.2971 0 2.4682-1.167 4.4907-3.145 5.4637 2.87.6575 4.617 2.6395 4.617 5.6754 0 4.1078-2.945 6.923-8.427 6.923h-12.609v-24.3592z"/><path d="m122.559 23.5348c1.787 0 2.772-1.2162 2.772-2.8918 0-1.8108-.949-2.9504-2.772-2.9504h-3.633v5.8377h3.633zm-1.473 6.0267h-2.164v6.3961h-7.5v-24.3502h11.988c6.099 0 9.421 3.6845 9.421 9.0041 0 3.4909-1.539 6.1619-4.107 7.6618l4.754 7.6843h-8.728z"/><path d="m95.841 31.4394c-1.6277 0-3.8852-.9548-3.8852-3.207 0-1.3197.8472-2.2836 1.6322-2.8242 0 0 3.9163 4.4683 4.7457 5.3736-.3947.2747-1.4105.6576-2.4927.6576zm9.247-.6216c.83-1.4728.95-3.2791.95-4.6755v-3.7969h-5.305v3.5628l-5.566-6.324c-.5412-.6757-.8871-1.1982-.8871-1.9999 0-.9324.6831-1.563 1.7076-1.563 1.1043 0 1.6943.6981 1.6943 1.6755v1.1757h5.7172v-1.5315c0-3.8602-3.149-6.2204-7.5402-6.2204-4.7589 0-7.8193 2.5404-7.8193 6.3736 0 1.0766.3461 2.752 1.947 4.2565-2.1288 1.0134-4.342 3.1801-4.342 6.6619 0 4.8375 3.7433 8.0446 10.3473 8.0446 2.2664 0 4.4042-.6396 5.9032-1.6576l1.06 1.1667h6.675z"/><path d="m61.0312 11.6074h7.5132v8.6618h6.1605v-8.6618h7.5044v24.3502h-7.5044v-8.7294h-6.1605v8.7294h-7.5132z"/></g></svg>