<svg width="240" height="54" viewBox="0 0 240 54" fill="none" xmlns="http://www.w3.org/2000/svg">
<path fill-rule="evenodd" clip-rule="evenodd" d="M158.455 2.45489C155.61 5.29889 155.366 7.22389 157.571 9.42889C160.442 12.2999 165.403 10.6999 167.048 6.37389C169.264 0.544895 163.152 -2.24311 158.455 2.45489ZM4.62963 6.63889C7.99963 10.0149 10.6356 14.6209 12.3106 20.0609C12.5756 20.9189 14.6266 22.1709 16.8696 22.8429C19.4066 23.6029 21.8456 25.2799 23.3256 27.2819C26.8216 32.0109 27.6306 34.0199 24.5136 30.2299C21.0806 26.0569 17.0786 23.9999 12.3946 23.9999C8.90263 23.9999 8.78263 24.1029 10.3046 25.7839C11.1916 26.7649 13.0936 30.2529 14.5296 33.5339C19.8226 45.6249 25.6356 51.1189 34.6666 52.5629L38.8336 53.2289L34.5006 44.3649C32.1176 39.4889 28.9576 30.7749 27.4766 24.9999C24.2166 12.2849 23.0566 9.90789 18.3606 6.32589C15.3716 4.04689 13.4706 3.47889 7.74063 3.15489L0.760629 2.76089L4.62963 6.63889ZM40.0496 15.2499C32.8926 42.5899 33.4106 39.3669 35.4506 43.8909C36.4546 46.1179 38.0396 48.6309 38.9726 49.4749C40.5496 50.9019 41.0306 49.6099 45.8336 31.0679C48.6746 20.0999 50.9996 10.0419 50.9996 8.71789C50.9996 5.85389 48.1536 2.99989 45.2996 2.99989C43.5276 2.99989 42.8306 4.62689 40.0496 15.2499ZM99.5886 11.2499C95.5586 25.6659 90.9996 44.2629 90.9996 46.2829C90.9996 52.1979 97.1406 54.9999 105.495 52.8969C110.463 51.6459 113.494 48.4499 112.404 45.6109C111.945 44.4139 111.158 44.1449 109.632 44.6599C105.582 46.0279 102.575 45.6009 102.175 43.6009C101.967 42.5559 102.806 37.9439 104.04 33.3509L106.284 24.9999H111.52H116.757L117.772 20.9999L118.787 16.9999H113.533H108.278L109.325 13.0769C110.641 8.14689 109.148 5.99989 104.405 5.99989C101.218 5.99989 100.985 6.25389 99.5886 11.2499ZM138.593 17.9529C135.181 19.6919 134.598 19.7409 133.256 18.3989C132.382 17.5249 130.439 17.0199 128.631 17.1959L125.513 17.4999L121.274 33.4999C118.944 42.2999 117.028 50.3119 117.018 51.3049C117.003 52.8349 117.72 53.0629 121.738 52.8049L126.476 52.4999L129.718 40.4999C133.089 28.0199 134.977 24.9999 139.411 24.9999C140.615 24.9999 142.101 25.5009 142.713 26.1129C144.236 27.6359 145.447 26.6839 147.506 22.3459C149.182 18.8149 149.179 18.6039 147.437 17.3299C144.966 15.5229 143.101 15.6539 138.593 17.9529ZM180.986 17.4869C164.505 22.7299 158.726 49.1459 173.204 53.0589C178.386 54.4599 186.63 53.7599 190.887 51.5579C193.291 50.3149 194 49.2849 194 47.0329C194 43.2719 192.879 42.6609 189.354 44.4989C184.895 46.8249 178.436 46.4609 176.557 43.7769C175.701 42.5549 175 40.5299 175 39.2769C175 37.0399 175.202 36.9999 186.429 36.9999H197.858L198.981 31.5919C200.258 25.4399 198.736 19.9999 195.21 18.1119C191.778 16.2749 185.642 16.0059 180.986 17.4869ZM226.275 16.9609C224.501 17.3879 221.995 18.4279 220.706 19.2729C218.544 20.6899 218.267 20.6569 217.135 18.8449C216.245 17.4199 215.029 16.9649 212.706 17.1899L209.504 17.4999L205.287 33.4999C202.968 42.2999 201.055 50.2879 201.035 51.2499C201.007 52.6589 201.865 52.9999 205.441 52.9999C207.884 52.9999 210.198 52.4889 210.584 51.8649C210.97 51.2399 212.531 45.8079 214.052 39.7929C215.574 33.7779 217.605 27.9889 218.565 26.9289C220.641 24.6339 227.766 24.2259 228.583 26.3549C228.869 27.0999 227.73 33.1489 226.051 39.7969C224.373 46.4439 223 52.1339 223 52.4419C223 52.7489 225.229 52.9999 227.953 52.9999C233.628 52.9999 232.633 54.8509 237.471 35.3009C240.35 23.6679 240.296 19.7489 237.238 18.1469C234.366 16.6429 229.698 16.1379 226.275 16.9609ZM54.1966 29.3439C50.3176 44.4379 50.1046 49.2599 53.2226 51.4429C56.2376 53.5549 63.7796 53.4059 68.2106 51.1479C71.7466 49.3439 71.8566 49.3439 72.3276 51.1479C72.6846 52.5099 73.7476 52.9999 76.3466 52.9999C78.2906 52.9999 80.1376 52.5849 80.4516 52.0779C80.7646 51.5719 82.8116 44.3339 85.0006 35.9949C89.5716 18.5819 89.3956 16.6719 83.2686 17.1939L79.6696 17.4999L76.9966 27.4999C75.5266 32.9999 74.0316 38.6809 73.6746 40.1229C72.9496 43.0499 68.6086 45.3649 64.8446 44.8319C61.5856 44.3709 61.4096 41.4829 63.9996 30.9999C66.9186 19.1849 66.6226 17.5829 61.4466 17.2019L57.3936 16.9039L54.1966 29.3439ZM153.099 20.7499C147.597 41.8459 145.789 50.0079 146.315 51.3779C146.744 52.4959 148.167 52.9999 150.893 52.9999C154.801 52.9999 154.868 52.9359 156.379 47.7819C157.22 44.9119 159.138 37.5219 160.641 31.3599C163.731 18.6939 163.35 16.9999 157.416 16.9999C154.398 16.9999 153.983 17.3609 153.099 20.7499ZM188.8 24.1999C189.46 24.8599 190 26.6599 190 28.1999C190 30.9789 189.952 30.9999 183.5 30.9999C176.144 30.9999 175.607 30.2389 179.923 25.9229C182.97 22.8769 186.744 22.1439 188.8 24.1999ZM6.36463 28.7499C5.99463 30.2619 4.46763 36.0939 2.97163 41.7089C1.47463 47.3229 0.49363 52.1609 0.79163 52.4589C1.08963 52.7559 3.26563 52.9999 5.62763 52.9999C9.74863 52.9999 9.96263 52.8479 10.9076 49.2499C14.3796 36.0369 14.3576 36.6409 11.5676 31.1339C8.63363 25.3439 7.34263 24.7529 6.36463 28.7499Z" fill="#231F20"/>
</svg>
