<svg fill="none" height="888" viewBox="0 0 440 888" width="440" xmlns="http://www.w3.org/2000/svg" xmlns:xlink="http://www.w3.org/1999/xlink"><filter id="a" color-interpolation-filters="sRGB" filterUnits="userSpaceOnUse" height="887" width="434" x="3" y=".5"><feFlood flood-opacity="0" result="BackgroundImageFix"/><feBlend in="SourceGraphic" in2="BackgroundImageFix" mode="normal" result="shape"/><feColorMatrix in="SourceAlpha" result="hardAlpha" type="matrix" values="0 0 0 0 0 0 0 0 0 0 0 0 0 0 0 0 0 0 127 0"/><feOffset/><feGaussianBlur stdDeviation="2"/><feComposite in2="hardAlpha" k2="-1" k3="1" operator="arithmetic"/><feColorMatrix type="matrix" values="0 0 0 0 0.12549 0 0 0 0 0.196078 0 0 0 0 0.211765 0 0 0 1 0"/><feBlend in2="shape" mode="normal" result="effect1_innerShadow_3912_76957"/></filter><filter id="b" color-interpolation-filters="sRGB" filterUnits="userSpaceOnUse" height="883" width="430" x="5" y="2.5"><feFlood flood-opacity="0" result="BackgroundImageFix"/><feBlend in="SourceGraphic" in2="BackgroundImageFix" mode="normal" result="shape"/><feColorMatrix in="SourceAlpha" result="hardAlpha" type="matrix" values="0 0 0 0 0 0 0 0 0 0 0 0 0 0 0 0 0 0 127 0"/><feOffset/><feGaussianBlur stdDeviation="2"/><feComposite in2="hardAlpha" k2="-1" k3="1" operator="arithmetic"/><feColorMatrix type="matrix" values="0 0 0 0 0.0836521 0 0 0 0 0.163985 0 0 0 0 0.20989 0 0 0 1 0"/><feBlend in2="shape" mode="normal" result="effect1_innerShadow_3912_76957"/></filter><linearGradient id="c" gradientUnits="userSpaceOnUse" x1="21703" x2="21703" y1=".5" y2="88700.5"><stop offset="0" stop-color="#17191b"/><stop offset="1" stop-color="#181e21"/></linearGradient><linearGradient id="d" gradientUnits="userSpaceOnUse" x1="21505" x2="21505" y1="2.5" y2="88302.5"><stop offset="0"/><stop offset=".9923"/></linearGradient><path d="m24 53c0-26.5097 21.4903-48 48-48h300c26.51 0 48 21.4903 48 48v46h-396z" fill="#040709"/><path d="m418 828c0 26.51-21.49 48-48 48h-300c-26.5097 0-48-21.49-48-48v-36h396z" fill="#040709"/><path d="m403.24 9.32c10.625 5.6254 19.315 14.3147 24.94 24.94 5.76 10.76 8.82 21.44 8.82 50.85v717.78c0 29.42-3.06 40.09-8.82 50.85-5.625 10.625-14.315 19.315-24.94 24.94-10.76 5.76-21.43 8.82-50.85 8.82h-264.78c-29.42 0-40.09-3.06-50.85-8.82-10.6253-5.625-19.3146-14.315-24.94-24.94-5.7-10.65-8.76-21.21-8.82-49.97v-718.67c0-29.42 3.06-40.09 8.82-50.85 5.627-10.6216 14.3161-19.3072 24.94-24.93 10.65-5.7 21.21-8.76 49.97-8.82h265.67c29.42 0 40.09 3.06 50.85 8.82zm-293.24 12.18h-27.97c-17.82.04-25.38 1.78-32.07 5.02l-.49.24-1.45.75c-7.7444 4.0923-13.97 10.5633-17.76 18.46l-.24.5c-3.28 6.75-5.02 14.41-5.02 32.71v729.28c.04 17.82 1.78 25.38 5.02 32.07l.24.49.75 1.45c4.0923 7.744 10.5633 13.97 18.46 17.76l.5.24c6.76 3.28 14.42 5.02 32.72 5.02h274.61c18.3 0 25.96-1.74 32.73-5.02l.49-.24 1.45-.75c7.744-4.092 13.97-10.563 17.76-18.46l.24-.5c3.28-6.76 5.02-14.42 5.02-32.72v-728.6c0-18.3-1.74-25.96-5.02-32.73l-.24-.49-.75-1.45c-4.092-7.7444-10.563-13.97-18.46-17.76l-.5-.24c-6.76-3.28-14.42-5.02-32.72-5.02h-27.77c-1 .04-1.78.27-2.44.67-.732.4499-1.314 1.1079-1.67 1.89-.39.81-.6 1.14-.6 2.44 0 5.99-1.06 9.47-3.06 13.21-2 3.75-4.93 6.68-8.67 8.69-3.65 1.95-7.71 3.01-14.76 3.06h-156.46c-7.06-.05-11.12-1.11-14.77-3.06-3.74-2-6.67-4.94-8.67-8.69-2-3.74-3.06-7.2-3.07-13.21 0-1.3-.22-1.63-.63-2.45-.399-.7924-1.026-1.4472-1.8-1.88-.808-.4368-1.711-.6669-2.63-.67h-.3z" fill="url(#c)"/><g filter="url(#a)"><path d="m403.24 9.32c10.625 5.6254 19.315 14.3147 24.94 24.94 5.76 10.76 8.82 21.44 8.82 50.85v717.78c0 29.42-3.06 40.09-8.82 50.85-5.625 10.625-14.315 19.315-24.94 24.94-10.76 5.76-21.43 8.82-50.85 8.82h-264.78c-29.42 0-40.09-3.06-50.85-8.82-10.6253-5.625-19.3146-14.315-24.94-24.94-5.7-10.65-8.76-21.21-8.82-49.97v-718.67c0-29.42 3.06-40.09 8.82-50.85 5.627-10.6216 14.3161-19.3072 24.94-24.93 10.65-5.7 21.21-8.76 49.97-8.82h265.67c29.42 0 40.09 3.06 50.85 8.82zm-293.24 12.18h-27.97c-17.82.04-25.38 1.78-32.07 5.02l-.49.24-1.45.75c-7.7444 4.0923-13.97 10.5633-17.76 18.46l-.24.5c-3.28 6.75-5.02 14.41-5.02 32.71v729.28c.04 17.82 1.78 25.38 5.02 32.07l.24.49.75 1.45c4.0923 7.744 10.5633 13.97 18.46 17.76l.5.24c6.76 3.28 14.42 5.02 32.72 5.02h274.61c18.3 0 25.96-1.74 32.73-5.02l.49-.24 1.45-.75c7.744-4.092 13.97-10.563 17.76-18.46l.24-.5c3.28-6.76 5.02-14.42 5.02-32.72v-728.6c0-18.3-1.74-25.96-5.02-32.73l-.24-.49-.75-1.45c-4.092-7.7444-10.563-13.97-18.46-17.76l-.5-.24c-6.76-3.28-14.42-5.02-32.72-5.02h-27.77c-1 .04-1.78.27-2.44.67-.732.4499-1.314 1.1079-1.67 1.89-.39.81-.6 1.14-.6 2.44 0 5.99-1.06 9.47-3.06 13.21-2 3.75-4.93 6.68-8.67 8.69-3.65 1.95-7.71 3.01-14.76 3.06h-156.46c-7.06-.05-11.12-1.11-14.77-3.06-3.74-2-6.67-4.94-8.67-8.69-2-3.74-3.06-7.2-3.07-13.21 0-1.3-.22-1.63-.63-2.45-.399-.7924-1.026-1.4472-1.8-1.88-.808-.4368-1.711-.6669-2.63-.67h-.3z" fill="#000"/></g><path d="m402.26 11.05c10.312 5.4565 18.744 13.8884 24.2 24.2 5.57 10.42 8.54 20.77 8.54 49.3v718.9c0 28.53-2.97 38.88-8.55 49.3-5.456 10.312-13.888 18.744-24.2 24.2-10.42 5.58-20.77 8.55-49.3 8.55h-265.89c-28.53 0-38.88-2.97-49.3-8.55-10.3116-5.456-18.7435-13.888-24.2-24.2-5.53-10.31-8.5-20.55-8.56-48.43v-719.78c0-28.52 2.97-38.87 8.55-49.3 5.4565-10.3116 13.8884-18.7435 24.2-24.2 10.31-5.5 20.55-8.47 48.43-8.54h266.77c28.52 0 38.87 2.97 49.3 8.55zm-292.26 10.45h-27.97c-17.82.04-25.38 1.78-32.07 5.02l-.49.24-1.45.75c-7.7444 4.0923-13.97 10.5633-17.76 18.46l-.24.5c-3.28 6.75-5.02 14.41-5.02 32.71v729.28c.04 17.82 1.78 25.38 5.02 32.07l.24.49.75 1.45c4.0923 7.744 10.5633 13.97 18.46 17.76l.5.24c6.76 3.28 14.42 5.02 32.72 5.02h274.61c18.3 0 25.96-1.74 32.73-5.02l.49-.24 1.45-.75c7.744-4.092 13.97-10.563 17.76-18.46l.24-.5c3.28-6.76 5.02-14.42 5.02-32.72v-728.6c0-18.3-1.74-25.96-5.02-32.73l-.24-.49-.75-1.45c-4.092-7.7444-10.563-13.97-18.46-17.76l-.5-.24c-6.76-3.28-14.42-5.02-32.72-5.02h-27.77c-1 .04-1.78.27-2.44.67-.732.4499-1.314 1.1079-1.67 1.89-.39.81-.6 1.14-.6 2.44 0 5.99-1.06 9.47-3.06 13.21-2 3.75-4.93 6.68-8.67 8.69-3.65 1.95-7.71 3.01-14.76 3.06h-156.46c-7.06-.05-11.12-1.11-14.77-3.06-3.74-2-6.67-4.94-8.67-8.69-2-3.74-3.06-7.2-3.07-13.21 0-1.3-.22-1.63-.63-2.45-.399-.7924-1.026-1.4472-1.8-1.88-.808-.4368-1.711-.6669-2.63-.67h-.3z" fill="url(#d)"/><g filter="url(#b)"><path d="m402.26 11.05c10.312 5.4565 18.744 13.8884 24.2 24.2 5.57 10.42 8.54 20.77 8.54 49.3v718.9c0 28.53-2.97 38.88-8.55 49.3-5.456 10.312-13.888 18.744-24.2 24.2-10.42 5.58-20.77 8.55-49.3 8.55h-265.89c-28.53 0-38.88-2.97-49.3-8.55-10.3116-5.456-18.7435-13.888-24.2-24.2-5.53-10.31-8.5-20.55-8.56-48.43v-719.78c0-28.52 2.97-38.87 8.55-49.3 5.4565-10.3116 13.8884-18.7435 24.2-24.2 10.31-5.5 20.55-8.47 48.43-8.54h266.77c28.52 0 38.87 2.97 49.3 8.55zm-292.26 10.45h-27.97c-17.82.04-25.38 1.78-32.07 5.02l-.49.24-1.45.75c-7.7444 4.0923-13.97 10.5633-17.76 18.46l-.24.5c-3.28 6.75-5.02 14.41-5.02 32.71v729.28c.04 17.82 1.78 25.38 5.02 32.07l.24.49.75 1.45c4.0923 7.744 10.5633 13.97 18.46 17.76l.5.24c6.76 3.28 14.42 5.02 32.72 5.02h274.61c18.3 0 25.96-1.74 32.73-5.02l.49-.24 1.45-.75c7.744-4.092 13.97-10.563 17.76-18.46l.24-.5c3.28-6.76 5.02-14.42 5.02-32.72v-728.6c0-18.3-1.74-25.96-5.02-32.73l-.24-.49-.75-1.45c-4.092-7.7444-10.563-13.97-18.46-17.76l-.5-.24c-6.76-3.28-14.42-5.02-32.72-5.02h-27.77c-1 .04-1.78.27-2.44.67-.732.4499-1.314 1.1079-1.67 1.89-.39.81-.6 1.14-.6 2.44 0 5.99-1.06 9.47-3.06 13.21-2 3.75-4.93 6.68-8.67 8.69-3.65 1.95-7.71 3.01-14.76 3.06h-156.46c-7.06-.05-11.12-1.11-14.77-3.06-3.74-2-6.67-4.94-8.67-8.69-2-3.74-3.06-7.2-3.07-13.21 0-1.3-.22-1.63-.63-2.45-.399-.7924-1.026-1.4472-1.8-1.88-.808-.4368-1.711-.6669-2.63-.67h-.3z" fill="#000"/></g><path d="m399.28 14.78c9.987 5.2859 18.154 13.4529 23.44 23.44 5.4 10.1 8.28 20.12 8.28 47.76v716.04c0 27.64-2.88 37.66-8.28 47.76-5.286 9.987-13.453 18.154-23.44 23.44-10.1 5.4-20.12 8.28-47.76 8.28h-263.04c-27.64 0-37.66-2.88-47.76-8.28-9.9871-5.286-18.1541-13.453-23.44-23.44-5.35-10-8.22-19.92-8.28-46.94v-716.86c0-27.64 2.88-37.66 8.28-47.76 5.2859-9.9871 13.4529-18.1541 23.44-23.44 10-5.35 19.92-8.22 46.94-8.28h263.86c27.64 0 37.66 2.88 47.76 8.28zm-289.28 6.72h-27.97c-17.82.04-25.38 1.78-32.07 5.02l-.49.24-1.45.75c-7.7444 4.0923-13.97 10.5633-17.76 18.46l-.24.5c-3.28 6.75-5.02 14.41-5.02 32.71v729.28c.04 17.82 1.78 25.38 5.02 32.07l.24.49.75 1.45c4.0923 7.744 10.5633 13.97 18.46 17.76l.5.24c6.76 3.28 14.42 5.02 32.72 5.02h274.61c18.3 0 25.96-1.74 32.73-5.02l.49-.24 1.45-.75c7.744-4.092 13.97-10.563 17.76-18.46l.24-.5c3.28-6.76 5.02-14.42 5.02-32.72v-728.6c0-18.3-1.74-25.96-5.02-32.73l-.24-.49-.75-1.45c-4.092-7.7444-10.563-13.97-18.46-17.76l-.5-.24c-6.76-3.28-14.42-5.02-32.72-5.02h-27.77c-1 .04-1.78.27-2.44.67-.732.4499-1.314 1.1079-1.67 1.89-.39.81-.6 1.14-.6 2.44 0 5.99-1.06 9.47-3.06 13.21-2 3.75-4.93 6.68-8.67 8.69-3.65 1.95-7.71 3.01-14.76 3.06h-156.46c-7.06-.05-11.12-1.11-14.77-3.06-3.74-2-6.67-4.94-8.67-8.69-2-3.74-3.06-7.2-3.07-13.21 0-1.3-.22-1.63-.63-2.45-.399-.7924-1.026-1.4472-1.8-1.88-.808-.4368-1.711-.6669-2.63-.67h-.3z" fill="#010005"/><path clip-rule="evenodd" d="m351.52 5.5c27.92 0 38.03 2.94 48.23 8.4 10.162 5.3781 18.472 13.688 23.85 23.85 5.4 10.1 8.34 20.1 8.4 47.4v716.87c0 27.92-2.94 38.03-8.4 48.23-5.378 10.162-13.688 18.472-23.85 23.85-10.1 5.4-20.1 8.34-47.4 8.4h-263.87c-27.92 0-38.03-2.94-48.23-8.4-10.7198-5.664-19.3675-14.581-24.7-25.47l-.4-.82-.3-.61c-4.37-9.14-6.75-19.6-6.85-43.62v-718.44c.06-26.46 2.82-36.68 7.92-46.48l.32-.61.16-.3c5.6641-10.7198 14.5814-19.3675 25.47-24.7l.82-.4.61-.3c9.14-4.37 19.6-6.75 43.62-6.85zm-241.55 17h-28.6c-16.89.08-24.28 1.72-30.97 4.92l-.48.24-.72.36-.7.37c-7.0742 3.7461-12.8581 9.5335-16.6 16.61l-.38.72-.37.71-.23.48-.12.25c-3.12 6.54-4.76 14.03-4.8 31.4v730.56c.08 16.89 1.72 24.28 4.92 30.97l.24.48.36.72.37.7c3.7435 7.073 9.5272 12.857 16.6 16.6l.72.38.71.37.48.23.25.12c6.54 3.12 14.03 4.76 31.4 4.8h275.92c17.36-.04 24.86-1.68 31.63-4.92l.48-.24.72-.36.7-.37c7.073-3.744 12.857-9.527 16.6-16.6l.38-.72.37-.71.23-.48.12-.25c3.12-6.54 4.76-14.03 4.8-31.4v-729.9c-.04-17.36-1.68-24.86-4.92-31.63l-.24-.48-.36-.72-.37-.7c-3.743-7.0728-9.527-12.8565-16.6-16.6l-.72-.38-.71-.37-.48-.23-.25-.12c-6.54-3.12-14.03-4.76-31.4-4.8h-28.39l-.26.02c-.67.05-1.21.22-1.68.5-.57.35-1 .86-1.37 1.63-.27.57-.42.87-.42 1.85 0 6.2-1.1 9.8-3.18 13.68-2.1 3.92-5.16 7-9.08 9.1-3.66 1.96-7.73 3.07-14.67 3.18h-157.59c-6.95-.1-11.02-1.22-14.68-3.18-3.871-2.0542-7.034-5.2248-9.08-9.1-2.07-3.87-3.18-7.45-3.19-13.68 0-.98-.16-1.29-.52-1.99-.309-.619-.797-1.131-1.4-1.47-.769-.3737-1.615-.5588-2.47-.54z" fill-rule="evenodd" stroke="#141718" stroke-width="2"/><path d="m399.28 14.78c9.987 5.2859 18.154 13.4529 23.44 23.44 5.4 10.1 8.28 20.12 8.28 47.76v716.04c0 27.64-2.88 37.66-8.28 47.76-5.286 9.987-13.453 18.154-23.44 23.44-10.1 5.4-20.12 8.28-47.76 8.28h-263.04c-27.64 0-37.66-2.88-47.76-8.28-9.9871-5.286-18.1541-13.453-23.44-23.44-5.35-10-8.22-19.92-8.28-46.94v-716.86c0-27.64 2.88-37.66 8.28-47.76 5.2859-9.9871 13.4529-18.1541 23.44-23.44 10-5.35 19.92-8.22 46.94-8.28h263.86c27.64 0 37.66 2.88 47.76 8.28zm-289.28 6.72h-27.97c-17.82.04-25.38 1.78-32.07 5.02l-.49.24-1.45.75c-7.7444 4.0923-13.97 10.5633-17.76 18.46l-.24.5c-3.28 6.75-5.02 14.41-5.02 32.71v729.28c.04 17.82 1.78 25.38 5.02 32.07l.24.49.75 1.45c4.0923 7.744 10.5633 13.97 18.46 17.76l.5.24c6.76 3.28 14.42 5.02 32.72 5.02h274.61c18.3 0 25.96-1.74 32.73-5.02l.49-.24 1.45-.75c7.744-4.092 13.97-10.563 17.76-18.46l.24-.5c3.28-6.76 5.02-14.42 5.02-32.72v-728.6c0-18.3-1.74-25.96-5.02-32.73l-.24-.49-.75-1.45c-4.092-7.7444-10.563-13.97-18.46-17.76l-.5-.24c-6.76-3.28-14.42-5.02-32.72-5.02h-27.77c-1 .04-1.78.27-2.44.67-.732.4499-1.314 1.1079-1.67 1.89-.39.81-.6 1.14-.6 2.44 0 5.99-1.06 9.47-3.06 13.21-2 3.75-4.93 6.68-8.67 8.69-3.65 1.95-7.71 3.01-14.76 3.06h-156.46c-7.06-.05-11.12-1.11-14.77-3.06-3.74-2-6.67-4.94-8.67-8.69-2-3.74-3.06-7.2-3.07-13.21 0-1.3-.22-1.63-.63-2.45-.399-.7924-1.026-1.4472-1.8-1.88-.808-.4368-1.711-.6669-2.63-.67h-.3z" stroke="#000"/><path clip-rule="evenodd" d="m198 30.5h42c.796 0 1.559.3161 2.121.8787.563.5626.879 1.3257.879 2.1213s-.316 1.5587-.879 2.1213c-.562.5626-1.325.8787-2.121.8787h-42c-.796 0-1.559-.3161-2.121-.8787-.563-.5626-.879-1.3257-.879-2.1213s.316-1.5587.879-2.1213c.562-.5626 1.325-.8787 2.121-.8787z" fill="#0f1013" fill-rule="evenodd"/></svg>