<svg fill="none" height="33" viewBox="0 0 257 33" width="257" xmlns="http://www.w3.org/2000/svg" xmlns:xlink="http://www.w3.org/1999/xlink"><clipPath id="a"><path d="m0 0h257v33h-257z"/></clipPath><g clip-path="url(#a)"><path d="m96.1806 24.0233c-.3543 1.0704-1.0338 2.0003-1.9414 2.6572-.9077.6569-1.9972 1.0074-3.1133 1.0015-.751.0202-1.4969-.1296-2.1832-.4385-.6863-.3088-1.2956-.7689-1.7836-1.3465-1.0388-1.1918-1.5583-2.7198-1.5583-4.584 0-1.8643.5261-3.3923 1.5782-4.5842.4903-.5748 1.1001-1.0331 1.7857-1.3422.6857-.309 1.4304-.4612 2.181-.4456 1.1874-.0152 2.3446.3789 3.281 1.1174.8898.6792 1.5283 1.6406 1.8134 2.7304l5.7289-1.2577c-.262-1.3873-.852-2.6899-1.72-3.7963-1.034-1.2953-2.3696-2.3111-3.887-2.9568-1.6701-.7103-3.467-1.06437-5.2786-1.03997-2.1192-.0469-4.2159.44577-6.0974 1.43257-1.7303.9274-3.1611 2.3374-4.1226 4.0627-1.0084 1.854-1.5157 3.9441-1.4705 6.0596-.0402 2.1105.4751 4.1939 1.4932 6.0367.9672 1.7327 2.4046 3.1494 4.1424 4.0828 1.867.9847 3.9495 1.4774 6.0549 1.4325 1.7969.027 3.5798-.3233 5.236-1.0286 1.5223-.6471 2.8647-1.6612 3.9096-2.9538.838-1.046 1.433-2.2689 1.74-3.5786zm-64.391-13.6062h6.1455v2.9768h.4647c.4793-1.012 1.2302-1.8672 2.167-2.4685s2.0218-.9244 3.1314-.93239c.8448-.01181 1.6805.17759 2.4395.55299v5.6556c-.5878-.2629-1.2012-.4626-1.8304-.5959-.5578-.13-1.1276-.2011-1.6999-.212-.6371-.0191-1.2697.1132-1.847.3863-.5773.2732-1.0831.6797-1.4767 1.1867-.8386 1.0486-1.2589 2.4094-1.2607 4.0826v11.1395h-6.2334zm16.5723-4.05987c-.6749-.71697-1.0513-1.66894-1.0513-2.6588 0-.98985.3764-1.94181 1.0513-2.65879.7403-.669507 1.6986-1.03964 2.6917-1.03964.9932 0 1.9515.370133 2.6916 1.03964.6749.71698 1.0515 1.66894 1.0515 2.65879 0 .98986-.3766 1.94183-1.0515 2.6588-.7401.66952-1.6984 1.03965-2.6916 1.03965-.9931 0-1.9514-.37013-2.6917-1.03965zm-.4193 4.05987h6.2334v21.7745h-6.2334zm13.0165 20.3277c-1.2883-1.4192-1.9324-3.2767-1.9324-5.5726v-10.1624h-3.0289v-4.5842c3.8421-2.33212 4.3238-4.75598 4.4144-6.87614h4.879s.5667 4.0111-2.125 6.87614h7.0041v4.5842h-4.9216v9.9075c-.0421.8187.2381 1.6212.7792 2.2318.2692.2789.5936.497.952.6403.3585.1432.7427.2081 1.1278.1906.7515-.0105 1.4994-.1066 2.2297-.2865v4.4953c-.6719.2206-1.3609.3845-2.0597.49-.7088.1216-1.426.1859-2.145.1919-2.159 0-3.8835-.7087-5.1736-2.1259zm11.441-24.38757c-.6749-.71697-1.0513-1.66894-1.0513-2.6588 0-.98985.3764-1.94181 1.0513-2.65879.7403-.669507 1.6986-1.03964 2.6917-1.03964.9932 0 1.9515.370133 2.6918 1.03964.6749.71698 1.0513 1.66894 1.0513 2.65879 0 .98986-.3764 1.94183-1.0513 2.6588-.7403.66952-1.6986 1.03965-2.6918 1.03965-.9931 0-1.9514-.37013-2.6917-1.03965zm-.4221 4.05987h6.2334v21.7745h-6.2334zm33.148 20.6457c-1.36-1.1193-2.041-2.6473-2.041-4.5841 0-4.1104 3.393-6.5935 10.178-7.4492l4.573-.5329v-.8939c.019-.4719-.063-.9425-.242-1.3792-.177-.4368-.447-.8292-.789-1.1507-.686-.636-1.645-.9551-2.879-.9569-1.15 0-2.076.3046-2.777.9139-.701.6094-1.037 1.4536-1.008 2.5328h-6.087c0-2.38.904-4.2795 2.712-5.6986 1.808-1.4192 4.226-2.12787 7.253-2.12596 3.059 0 5.498.72966 7.319 2.18896 1.82 1.4593 2.731 3.4228 2.731 5.8906v14.3712h-6.233v-2.7619h-.423c-.673 1.0792-1.644 1.9356-2.792 2.464-1.288.5904-2.69.884-4.104.8594-2.234-.0057-4.032-.5681-5.391-1.6875zm11.248-3.8048c.475-.4251.853-.9498 1.108-1.5377.254-.5877.378-1.2245.366-1.866v-1.5299l-4.418.5529c-1.456.1681-2.528.529-3.216 1.083-.316.2286-.574.5295-.753.8779-.179.3485-.274.7349-.278 1.1277-.016.373.058.7445.216 1.082.158.3377.395.631.691.8547.6.467 1.436.702 2.501.702 1.542.0096 2.803-.4393 3.783-1.3466zm9.506-26.622328h6.234v31.553128h-6.234zm54.332 30.427128c-1.36-1.1193-2.04-2.6473-2.04-4.5841 0-4.1104 3.393-6.5935 10.178-7.4492l4.584-.553v-.8939c.019-.472-.064-.9424-.241-1.3791-.179-.4368-.448-.8294-.79-1.1507-.686-.6361-1.645-.9551-2.879-.957-1.15 0-2.076.3047-2.777.914-.7.6093-1.037 1.4536-1.008 2.5327h-6.098c0-2.3799.904-4.2795 2.712-5.6987 1.807-1.4191 4.226-2.12774 7.253-2.12582 3.057 0 5.496.72962 7.319 2.18892 1.823 1.4592 2.734 3.4229 2.734 5.8906v14.3913h-6.233v-2.7619h-.422c-.674 1.0792-1.645 1.9356-2.794 2.464-1.287.5904-2.689.884-4.103.8594-2.234-.0057-4.032-.5681-5.395-1.6875zm11.249-3.8048c.476-.4251.853-.9498 1.108-1.5376s.379-1.2246.365-1.8661v-1.5299l-4.417.5529c-1.457.1681-2.528.529-3.216 1.083-.316.2286-.574.5295-.753.8779-.179.3485-.275.7349-.278 1.1277-.015.3727.059.7434.216 1.0807.158.3373.393.6311.688.856.604.467 1.436.702 2.504.702 1.542.0096 2.803-.4393 3.783-1.3466zm11.994 3.5498c-1.823-1.4326-2.735-3.3961-2.735-5.8906h5.517c-.015.5406.096 1.077.327 1.5652.23.4882.571.9141.996 1.2426.884.7086 2.082 1.0629 3.596 1.0629 1.178 0 2.123-.2406 2.833-.722.333-.2025.607-.49.796-.8333.188-.3434.284-.7309.278-1.1235 0-.9092-.393-1.5118-1.179-1.8079-.786-.296-2.005-.53-3.657-.7019-1.552-.1515-3.092-.414-4.608-.785-1.236-.3204-2.362-.975-3.258-1.8939-.923-.934-1.386-2.2711-1.388-4.0111-.029-1.0335.197-2.0577.656-2.9816s1.137-1.7185 1.973-2.3131c1.751-1.3179 4.071-1.97685 6.959-1.97685 1.75-.0279 3.49.27527 5.131.89395 1.393.507 2.618 1.4006 3.533 2.5785.841 1.117 1.285 2.4875 1.261 3.8908h-5.667c-.004-.455-.115-.9027-.323-1.3057-.209-.4031-.51-.7501-.878-1.0121-.771-.5731-1.787-.8596-3.049-.8596-1.148 0-2.073.233-2.773.6991-.326.1942-.593.4716-.778.8041-.184.3325-.279.7085-.274 1.0897-.015.2835.045.566.175.8179.129.2518.324.4642.562.6146.509.3346 1.081.5589 1.68.659.633.1146 1.706.2569 3.219.4269 1.472.1572 2.929.4449 4.351.8595 1.206.3557 2.295 1.0314 3.154 1.9569.856.9206 1.284 2.1889 1.284 3.8048 0 2.3246-.905 4.1391-2.715 5.4436-1.809 1.3047-4.299 1.9589-7.471 1.9626-3.197 0-5.705-.7181-7.528-2.1545zm21.283.0001c-1.824-1.4326-2.736-3.3962-2.734-5.8906h5.509c-.016.5408.097 1.0776.327 1.5659.231.4883.574.914.999 1.2418.882.7086 2.08 1.0629 3.596 1.0629 1.174 0 2.118-.2406 2.832-.722.333-.2021.609-.4894.796-.8328.189-.3436.285-.7313.279-1.124 0-.9092-.394-1.5118-1.179-1.8079-.786-.296-2.005-.53-3.659-.7019-1.551-.1515-3.089-.4138-4.603-.785-1.237-.319-2.364-.9739-3.259-1.8939-.926-.934-1.388-2.271-1.388-4.0111-.028-1.033.197-2.057.656-2.9808.458-.9238 1.135-1.7186 1.97-2.3139 1.755-1.3179 4.076-1.97685 6.962-1.97685 1.749-.02788 3.489.2753 5.129.89395 1.394.5063 2.619 1.4001 3.533 2.5785.84 1.117 1.284 2.4875 1.26 3.8908h-5.667c-.003-.4548-.113-.9022-.321-1.3053-.21-.403-.51-.7501-.877-1.0125-.77-.5731-1.787-.8596-3.049-.8596-1.15 0-2.075.233-2.776.6991-.324.1946-.592.472-.776.8045-.185.3324-.28.7082-.276 1.0894-.013.2833.047.5655.177.8174.129.2518.323.4641.56.6151.511.3348 1.083.5592 1.683.6589.629.1147 1.701.2569 3.216.4269 1.473.1566 2.93.4443 4.352.8595 1.206.3557 2.295 1.0314 3.154 1.9569.856.9206 1.283 2.1889 1.283 3.8048 0 2.3246-.904 4.1391-2.711 5.4438-1.808 1.3045-4.298 1.9587-7.472 1.9624-3.195 0-5.704-.7181-7.526-2.1544zm-200.7373-9.1368c-.542 1.4725-1.4935 2.755-2.7399 3.693-1.4697 1.1553-3.2811 1.7769-5.1425 1.765-1.663.0285-3.3008-.413-4.7289-1.275-1.39278-.8563-2.51598-2.0954-3.23857-3.5727-.79223-1.6258-1.18859-3.4195-1.15601-5.2317-.0336-1.8048.36291-3.5914 1.15601-5.2087.72726-1.4681 1.84987-2.69867 3.23857-3.54983 1.4281-.86196 3.0659-1.30353 4.7289-1.27496 1.8987-.02286 3.7475.61547 5.2359 1.80786 1.2646.97479 2.2055 2.31593 2.6974 3.84493l6.1541-2.2663c-.4769-1.35111-1.1773-2.61054-2.0712-3.72457-1.4158-1.76729-3.2231-3.17279-5.2757-4.1028-2.1598-.98763-4.5062-1.48818-6.8765-1.46692-2.8644-.04631-5.6931.64902-8.2168 2.01988-2.38597 1.30795-4.36037 3.26769-5.69791 5.65566-1.352082 2.54215-2.0597775 5.38365-2.0597775 8.27015 0 2.8864.7076955 5.7278 2.0597775 8.27 1.33632 2.389 3.31101 4.3489 5.69791 5.6556 2.5251 1.3659 5.3535 2.0563 8.2168 2.0056 2.4008.0235 4.7795-.4646 6.9814-1.4325 2.049-.887 3.8581-2.2576 5.2756-3.9968.8757-1.0729 1.5602-2.2915 2.0231-3.6014zm221.4303 9.2857c-1.209-1.1957-1.813-2.7237-1.813-4.5841-.029-.8494.118-1.6954.43-2.4845s.783-1.5041 1.383-2.0997c1.207-1.1956 2.753-1.7945 4.638-1.7963 1.885-.0019 3.432.5968 4.642 1.7963 1.164 1.2354 1.815 2.877 1.815 4.5842s-.651 3.3488-1.815 4.5841c-1.21 1.1995-2.757 1.7983-4.642 1.7964-1.885-.0018-3.431-.6007-4.638-1.7964zm-103.968-29.0433h9.671l7.885 20.342h.422l7.801-20.342h9.755v30.2753h-6.801v-20.8349h-.422l-7.695 20.8349h-5.666l-7.697-20.8349h-.418v20.8349h-6.8z" fill="#231f20"/></g></svg>