<svg fill="none" height="33" viewBox="0 0 275 33" width="275" xmlns="http://www.w3.org/2000/svg"><g fill="#231f20"><path d="m6.10695 4.51074c-.47011 0-.92966.13931-1.32051.40032-.39085.261-.69545.63196-.87526 1.06596s-.22676.91153-.1349 1.3722c.09185.46066.31838.88376.65093 1.21576.33256.332.75619.558 1.21731.6494.46111.0914.93901.0441 1.37322-.13592s.80523-.48467 1.06612-.87541c.2609-.39075.39995-.85003.39956-1.31974-.00103-.62927-.2518-1.23243-.69731-1.67721-.44551-.44477-1.04938-.69484-1.67916-.69536z"/><path d="m4.75295 20.4468c0-.4697-.13937-.9287-.4005-1.3192-.26114-.3905-.63229-.6949-1.06653-.8746-.43425-.1797-.91208-.2267-1.37307-.1351s-.88444.3178-1.216795.6498c-.332356.3321-.558694.7552-.6503906 1.2158-.0916969.4606-.04463471.9381.1352356 1.372.179869.4339.484468.8047.87528 1.0656.39081.2609.85027.4002 1.3203.4002.63012-.0005 1.23429-.2509 1.67985-.6961.44556-.4451.69611-1.0488.69662-1.6784z"/><path d="m2.37648 15.165c.47002 0 .92949-.1392 1.3203-.4001s.6954-.6318.87527-1.0657.22694-.9113.13524-1.3719-.31803-.8837-.65039-1.2158-.7558-.5582-1.2168-.6499c-.46099-.0916-.93882-.0446-1.37306.1352-.43425.1797-.805401.484-1.066532.8745-.26113.3905-.400508.8496-.400508 1.3192.00103188.6295.251741 1.2328.697194 1.6779.445456.4451 1.049316.6956 1.679286.6966z"/><path d="m12.5171.974609c-.4699.000001-.9293.139211-1.3201.400041s-.6954.63156-.8753 1.06534c-.1799.43377-.2271.9111-.1356 1.37166.0916.46056.3177.88366.6499 1.21582s.7554.55846 1.2163.6503c.4608.09185.9386.0451 1.3729-.13432.4343-.17943.8056-.48347 1.0669-.8737.2614-.39023.4011-.84913.4015-1.31868-.0005-.62978-.251-1.23365-.6965-1.67915-.4455-.44551-1.0497-.696278-1.68-.697311z"/><path d="m32.4961 4.8169c-.5225.00075-1.0302.17369-1.4444.49202-.4141.31832-.7116.76426-.8464 1.26868-.1347.50443-.0992 1.03919.1011 1.52139s.5542.88492 1.0069 1.14574c.4526.26083.9787.36519 1.4967.29692.5181-.06827.9991-.30537 1.3686-.67454.3695-.36918.6067-.84981.6751-1.36742.0683-.5176-.0362-1.04327-.2972-1.49554-.2088-.36131-.5091-.66128-.8709-.86971-.3617-.20842-.772-.31795-1.1895-.31754z"/><path d="m28.2017 1.99061c-.3593-.30282-.8004-.49237-1.2676-.54468-.4671-.05231-.9393.03497-1.3568.25081-.4174.21583-.7615.55053-.9886.96175s-.327.8805-.2872 1.34848c.0399.46798.2177.91364.5111 1.28062.2933.36697.689.63878 1.137.78105.448.14226.9281.14858 1.3797.01817s.8543-.3917 1.1573-.75082c.4061-.48142.6042-1.10428.5508-1.73162-.0535-.62735-.354-1.20781-.8357-1.61376z"/><path d="m20.4391.29695c-.5167-.187877-1.0827-.190896-1.6014-.008543-.5187.182354-.958.538794-1.2432 1.008573-.2851.46978-.3984 1.02382-.3205 1.56771.0779.54388.3421 1.04395.7477 1.41497.4055.37102.9273.59003 1.4764.61971s1.0915-.13181 1.5347-.45695c.4433-.32514.76-.7938.8961-1.32611.1362-.53232.0834-1.09534-.1494-1.59311-.2665-.570056-.7486-1.011093-1.3404-1.22625z"/><path d="m6.10695 24.0186c-.47003 0-.92949.1392-1.3203.4001s-.69541.6318-.87528 1.0657-.22693.9113-.13524 1.3719c.0917.4606.31804.8837.65039 1.2158.33236.3321.75581.5582 1.2168.6499.46099.0916.93882.0446 1.37306-.1352.43425-.1797.8054-.484 1.06653-.8745s.40051-.8496.40051-1.3192c-.00103-.6295-.25174-1.2328-.69719-1.6779s-1.04932-.6956-1.67928-.6966z"/><path d="m12.5171 27.2935c-.47 0-.9295.1392-1.3203.4001-.3908.261-.6954.6318-.8753 1.0657-.1798.4339-.2269.9113-.1352 1.3719s.318.8837.6504 1.2158c.3323.3321.7558.5582 1.2168.6499.461.0916.9388.0446 1.373-.1352.4343-.1797.8054-.484 1.0666-.8745.2611-.3905.4005-.8496.4005-1.3192-.0011-.6295-.2518-1.2328-.6972-1.6779-.4455-.4451-1.0493-.6956-1.6793-.6966z"/><path d="m33.6828 24.0297c-.4767-.2758-1.0344-.3779-1.578-.2889s-1.0395.3636-1.4031.7771c-.3636.4134-.5725.94-.591 1.4901s.1545 1.0896.4896 1.5265c.335.4368.8113.7441 1.3477.8694s1.0997.0608 1.5938-.1825c.4941-.2432.8885-.6502 1.116-1.1515.2274-.5013.2738-1.0659.1312-1.5975-.0802-.3014-.2193-.584-.4091-.8316-.1899-.2475-.4268-.4552-.6971-.6111z"/><path d="m26.6733 27.0981c-.5409.0001-1.0657.1845-1.4875.5228s-.7156.8102-.8326 1.3379c-.1171.5277-.0505 1.0795.1888 1.5642s.6369.8734 1.1271 1.1018c.4903.2283 1.0439.2828 1.5693.1543s.9912-.4323 1.3204-.8611c.3293-.4288.5023-.957.4905-1.4973-.0119-.5404-.2079-1.0605-.5556-1.4745-.2229-.2658-.5014-.4795-.816-.626-.3145-.1465-.6574-.2223-1.0044-.2221z"/><path d="m19.6229 28.2471c-.2767.0003-.5513.0485-.8116.1423-.4424.1597-.8274.4469-1.1063.8253-.2789.3785-.4391.8311-.4604 1.3006s.0974.9347.3409 1.3368c.2435.402.601.7229 1.0271.9218.4262.199.9018.2671 1.3667.1958s.8982-.2789 1.2449-.5964c.3468-.3175.5915-.7307.7031-1.1873.1116-.4565.0851-.9359-.0762-1.3774-.1678-.4561-.4712-.8502-.8694-1.1293s-.8723-.4299-1.3588-.4322z"/><path d="m202.496 4.51074c-.471-.00038-.93.1386-1.321.39937-.392.26077-.696.63159-.877 1.06556-.18.43396-.227.91156-.135 1.37235.091.4608.318.88407.65 1.21627.333.3322.756.55839 1.218.64995.461.09156.939.04437 1.373-.13559s.805-.48461 1.066-.8754c.261-.39078.401-.85014.4-1.31994 0-.62909-.251-1.23226-.696-1.67709s-1.049-.69496-1.678-.69548z"/><path d="m201.14 20.4468c0-.4697-.14-.9287-.401-1.3192s-.632-.6949-1.066-.8746c-.435-.1797-.912-.2267-1.373-.1351s-.885.3178-1.217.6498c-.333.3321-.559.7552-.651 1.2158-.091.4606-.044.9381.136 1.372.179.4339.484.8047.875 1.0656s.85.4002 1.32.4002c.63-.0005 1.234-.2509 1.68-.6961.446-.4451.696-1.0488.697-1.6784z"/><path d="m198.763 15.165c.47 0 .93-.1392 1.32-.4001.391-.2609.696-.6318.876-1.0657s.227-.9113.135-1.3719-.318-.8837-.65-1.2158c-.333-.3321-.756-.5582-1.217-.6499-.461-.0916-.939-.0446-1.373.1352-.434.1797-.806.484-1.067.8745s-.4.8496-.4 1.3192c0 .6296.251 1.2333.696 1.6785.446.4452 1.05.6955 1.68.696z"/><path d="m208.904.974609c-.47 0-.93.139261-1.32.400181-.391.26091-.696.63176-.876 1.06565-.18.43388-.227.91132-.135 1.37193s.318.88371.65 1.21579c.333.33208.756.55823 1.217.64985s.939.0446 1.373-.13512.806-.48407 1.067-.87456c.261-.39048.4-.84957.4-1.31921 0-.6296-.251-1.23327-.696-1.67846-.446-.4452-1.05-.695534-1.68-.696051z"/><path d="m228.884 4.8169c-.63 0-1.234.25017-1.68.69548-.446.4453-.696 1.04927-.696 1.67903s.25 1.23373.696 1.67904c.446.4453 1.05.69547 1.68.69547.417-.0014.825-.11091 1.187-.31777.453-.26136.807-.66496 1.008-1.14815.2-.4832.235-1.01894.099-1.52406-.135-.50511-.434-.95135-.85-1.26942-.415-.31807-.924-.49019-1.448-.48962z"/><path d="m224.592 1.99068c-.36-.30189-.802-.49033-1.269-.54149s-.939.03727-1.356.25409c-.417.21683-.76.55231-.986.96403-.227.41172-.325.88119-.284 1.34904.04.46785.219.91306.513 1.27934.295.36628.691.63718 1.139.77844s.929.14653 1.38.01516c.451-.13138.853-.39351 1.155-.75324.405-.48261.601-1.10595.547-1.73318-.055-.62722-.357-1.20706-.839-1.61219z"/><path d="m216.825.296127c-.26-.09536-.535-.144195-.812-.144264-.597-.001449-1.173.220791-1.614.622854s-.715.954733-.768 1.548923c-.054.59419.118 1.18672.481 1.66063.362.47392.89.79478 1.477.89926.588.10448 1.194-.01502 1.698-.33491s.869-.81692 1.025-1.39299c.155-.57607.088-1.18932-.187-1.71871-.275-.529377-.739-.936425-1.3-1.140793z"/><path d="m202.496 24.0186c-.471-.0004-.93.1385-1.321.3992s-.696.6314-.876 1.0652c-.181.4339-.228.9114-.136 1.3721.091.4608.317.884.65 1.2163.332.3323.755.5586 1.216.6504s.939.0449 1.374-.1348c.434-.1796.805-.484 1.067-.8745.261-.3905.4-.8497.4-1.3194 0-.6293-.251-1.2327-.696-1.6778s-1.049-.6957-1.678-.6967z"/><path d="m208.904 27.2935c-.47 0-.93.1392-1.32.4001-.391.261-.696.6318-.876 1.0657s-.227.9113-.135 1.3719.318.8837.65 1.2158c.333.3321.756.5582 1.217.6499.461.0916.939.0446 1.373-.1352.434-.1797.806-.484 1.067-.8745s.4-.8496.4-1.3192c0-.6296-.251-1.2333-.696-1.6785-.446-.4452-1.05-.6955-1.68-.696z"/><path d="m230.074 24.0302c-.407-.2351-.875-.3443-1.344-.3137-.469.0305-.919.1995-1.292.4854s-.653.676-.804 1.1209c-.151.4448-.167.9245-.045 1.3782.137.5031.436.9472.851 1.2642.414.3169.922.4892 1.443.4904.417-.0009.827-.111 1.188-.3193s.662-.5076.871-.868c.315-.5452.401-1.1933.238-1.8016-.163-.6084-.561-1.1272-1.106-1.4423z"/><path d="m223.062 27.0981c-.541.0005-1.065.1853-1.487.5238-.421.3386-.715.8107-.831 1.3383-.117.5277-.05 1.0793.189 1.5639.24.4845.637.8729 1.128 1.1011.49.2281 1.043.2824 1.569.1537.525-.1286.991-.4324 1.32-.8613.329-.4288.502-.9569.49-1.4972-.012-.5402-.208-1.0603-.556-1.4742-.223-.2658-.502-.4795-.817-.6261-.315-.1465-.658-.2222-1.005-.222z"/><path d="m216.014 28.2471c-.277.0005-.552.0486-.813.1423-.56.2026-1.023.6073-1.298 1.1342s-.343 1.1378-.19 1.7122c.153.5743.516 1.0704 1.018 1.3904.501.32 1.104.4407 1.69.3382s1.113-.4207 1.475-.8919c.363-.4711.536-1.061.485-1.6532s-.323-1.1438-.761-1.5459-1.011-.6256-1.606-.6263z"/><path d="m242.031 4.51074c-.47-.00038-.93.1386-1.321.39937s-.696.63159-.876 1.06556c-.18.43396-.228.91156-.136 1.37235.092.4608.318.88407.65 1.21627.333.3322.757.55839 1.218.64995s.939.04437 1.373-.13559.806-.48461 1.067-.8754c.261-.39078.4-.85014.399-1.31994-.001-.62893-.251-1.2318-.696-1.67652s-1.049-.69502-1.678-.69605z"/><path d="m240.675 20.4468c0-.4697-.14-.9289-.401-1.3194-.261-.3906-.632-.6949-1.067-.8746-.434-.1796-.912-.2265-1.373-.1348-.461.0918-.884.3182-1.217.6504-.332.3323-.558.7556-.65 1.2163-.091.4608-.044.9383.136 1.3721.181.4339.485.8046.876 1.0653.392.2606.851.3996 1.321.3992.63-.0005 1.234-.2509 1.679-.6962.446-.4452.696-1.0489.696-1.6783z"/><path d="m238.298 15.165c.47 0 .93-.1392 1.321-.4001.39-.2609.695-.6318.875-1.0657s.227-.9113.135-1.3719-.318-.8837-.65-1.2158c-.333-.3321-.756-.5582-1.217-.6499-.461-.0916-.939-.0446-1.373.1352-.434.1797-.806.484-1.067.8745s-.4.8496-.4 1.3192c0 .6296.251 1.2333.696 1.6785.446.4452 1.05.6955 1.68.696z"/><path d="m274.999 20.4468c0-.4697-.139-.9289-.401-1.3194-.261-.3906-.632-.6949-1.066-.8746-.435-.1796-.913-.2265-1.374-.1348-.461.0918-.884.3182-1.217.6504-.332.3323-.558.7556-.649 1.2163-.092.4608-.045.9383.136 1.3721.18.4339.485.8046.876 1.0653.391.2606.85.3996 1.321.3992.629-.0005 1.233-.2509 1.679-.6962.445-.4452.695-1.0489.695-1.6783z"/><path d="m272.623 15.165c.47 0 .929-.1392 1.32-.4001s.695-.6318.875-1.0657.227-.9113.135-1.3719c-.091-.4606-.318-.8837-.65-1.2158s-.756-.5582-1.217-.6499c-.461-.0916-.939-.0446-1.373.1352-.434.1797-.805.484-1.066.8745-.262.3905-.401.8496-.401 1.3192.001.6296.251 1.2333.697 1.6785.445.4452 1.049.6955 1.68.696z"/><path d="m248.443.974609c-.47 0-.93.139261-1.32.400181-.391.26091-.696.63176-.876 1.06565-.18.43388-.227.91132-.135 1.37193s.318.88371.65 1.21579c.333.33208.756.55823 1.217.64985s.939.0446 1.373-.13512c.435-.17972.806-.48407 1.067-.87456.261-.39048.4-.84957.4-1.31921 0-.6296-.251-1.23327-.696-1.67846-.446-.4452-1.05-.695534-1.68-.696051z"/><path d="m268.418 4.8169c-.523.00076-1.03.1737-1.444.49202-.415.31833-.712.76426-.847 1.26869s-.099 1.03918.101 1.52138c.201.4822.554.88492 1.007 1.14575.453.26082.979.36519 1.497.29692.518-.06828.999-.30537 1.368-.67455.37-.36917.607-.84981.676-1.36741.068-.51761-.037-1.04328-.298-1.49554-.208-.36171-.508-.66201-.87-.8705-.362-.20848-.772-.31776-1.19-.31676z"/><path d="m264.123 1.99068c-.36-.30189-.802-.49033-1.269-.54149s-.939.03727-1.356.25409c-.417.21683-.76.55231-.986.96403s-.325.88119-.284 1.34904.22.91306.514 1.27934.69.63718 1.138.77844c.449.14126.929.14653 1.38.01516.451-.13138.853-.39351 1.156-.75324.2-.23886.352-.51486.446-.81225.094-.2974.128-.61035.101-.921-.028-.31065-.116-.61291-.26-.88951-.144-.27661-.341-.52216-.58-.72261z"/><path d="m256.361.29695c-.517-.187877-1.083-.190896-1.601-.008543-.519.182354-.958.538794-1.244 1.008573-.285.46978-.398 1.02382-.32 1.56771.078.54388.342 1.04395.748 1.41497.405.37102.927.59003 1.476.61971s1.091-.13181 1.535-.45695c.443-.32514.76-.7938.896-1.32611.136-.53232.083-1.09534-.15-1.59311-.266-.570056-.748-1.011093-1.34-1.22625z"/><path d="m242.031 24.0186c-.47-.0004-.93.1385-1.321.3992s-.696.6314-.876 1.0652c-.18.4339-.228.9114-.136 1.3721.091.4608.317.884.65 1.2163.332.3323.755.5586 1.216.6504.462.0918.939.0449 1.374-.1348.434-.1796.805-.484 1.067-.8745.261-.3905.4-.8497.4-1.3194-.001-.6291-.251-1.2322-.696-1.6772-.445-.4451-1.049-.6958-1.678-.6973z"/><path d="m248.443 27.2935c-.47 0-.93.1392-1.32.4001-.391.261-.696.6318-.876 1.0657s-.227.9113-.135 1.3719.318.8837.65 1.2158c.333.3321.756.5582 1.217.6499.461.0916.939.0446 1.373-.1352.435-.1797.806-.484 1.067-.8745s.4-.8496.4-1.3192c-.001-.6295-.251-1.2328-.697-1.6779-.445-.4451-1.049-.6956-1.679-.6966z"/><path d="m269.609 24.0297c-.477-.2758-1.035-.3779-1.578-.2889-.544.089-1.04.3636-1.403.7771-.364.4134-.573.94-.592 1.4901-.018.5501.155 1.0896.49 1.5265.335.4368.811.7441 1.348.8694.536.1253 1.099.0608 1.594-.1825.494-.2432.888-.6502 1.116-1.1515.227-.5013.273-1.0659.131-1.5975-.08-.3014-.219-.584-.409-.8316-.19-.2475-.427-.4552-.697-.6111z"/><path d="m262.595 27.0981c-.541.0001-1.065.1845-1.487.5228s-.716.8103-.833 1.3379c-.117.5277-.05 1.0795.189 1.5642s.637.8734 1.127 1.1018c.49.2283 1.044.2828 1.569.1543.526-.1285.991-.4323 1.321-.8611.329-.4288.502-.957.49-1.4973-.012-.5404-.208-1.0605-.555-1.4745-.223-.266-.502-.4798-.816-.6264-.315-.1465-.658-.2222-1.005-.2217z"/><path d="m255.547 28.2471c-.276.0003-.551.0485-.811.1423-.56.2026-1.023.6074-1.298 1.1344s-.343 1.138-.19 1.7124c.154.5745.517 1.0705 1.019 1.3904.501.3199 1.104.4404 1.69.3376.587-.1027 1.113-.4212 1.475-.8926.363-.4714.535-1.0615.484-1.6537-.052-.5923-.323-1.1438-.762-1.5457-.438-.4018-1.012-.6249-1.607-.6251z"/><path d="m43.7531.779298c-.5226.000079-1.0305.172386-1.4451.490212-.4146.31783-.7127.76343-.848 1.26773-.1354.5043-.1005 1.03913.0993 1.5216.1997.48247.5532.88562 1.0056 1.14697.4523.26135.9784.3663 1.4965.29858s.9995-.30433 1.3693-.67314c.3699-.36882.6077-.84925.6766-1.36682.0688-.51757-.0351-1.04338-.2958-1.49593-.2079-.36178-.5077-.66229-.8692-.87111-.3614-.20882-.7717-.318552-1.1892-.318092z"/><path d="m43.755 7.4082c-.5231.00008-1.0316.17263-1.4466.49088s-.7132.76442-.8486 1.26933c-.1353.5049-.1001 1.04029.1001 1.52319s.5543.8863 1.0074 1.1476.9798.366 1.4984.2977c.5187-.0683 1.0003-.3056 1.3702-.6752s.6074-.8509.6756-1.3691c.0683-.51821-.0365-1.04447-.298-1.49714-.2083-.36129-.5083-.66129-.8697-.86974s-.7715-.31797-1.1888-.31752z"/><path d="m43.7559 14.0366c-.5226.0003-1.0305.1729-1.445.491s-.7123.7639-.8474 1.2683-.0998 1.0393.1003 1.5217c.2.4824.5538.8853 1.0064 1.1464.4526.261.9788.3656 1.4969.2975.5182-.0681.9993-.3052 1.3689-.6743.3697-.3692.6071-.8499.6754-1.3675.0684-.5177-.036-1.0435-.2971-1.4958-.2082-.3614-.5081-.6616-.8696-.87-.3614-.2085-.7715-.3179-1.1888-.3173z"/><path d="m43.755 20.665c-.5231.0001-1.0316.1727-1.4466.4909-.415.3183-.7132.7644-.8486 1.2693-.1353.5049-.1001 1.0404.1001 1.5232.2002.4829.5543.8863 1.0074 1.1476s.9798.366 1.4984.2977c.5187-.0682 1.0003-.3056 1.3702-.6752s.6074-.8508.6756-1.3691c.0683-.5182-.0365-1.0444-.298-1.4971-.2083-.3613-.5083-.6613-.8697-.8697-.3614-.2085-.7715-.318-1.1888-.3176z"/><path d="m70.4347 27.3579c-.5231.0001-1.0316.1726-1.4466.4909-.415.3182-.7133.7644-.8486 1.2693s-.1002 1.0403.1001 1.5232c.2002.4829.5543.8863 1.0074 1.1476.453.2613.9797.366 1.4984.2977.5186-.0682 1.0003-.3056 1.3702-.6752.3698-.3696.6073-.8509.6756-1.3691s-.0365-1.0445-.298-1.4971c-.2082-.3615-.5082-.6616-.8696-.87-.3614-.2085-.7715-.3179-1.1889-.3173z"/><path d="m63.7695 27.3579c-.5225.0008-1.0302.1737-1.4443.492-.4142.3184-.7117.7643-.8464 1.2687-.1348.5045-.0993 1.0392.101 1.5214.2004.4822.5543.8849 1.0069 1.1458.4526.2608.9787.3651 1.4968.2969.518-.0683.999-.3054 1.3685-.6746.3695-.3691.6068-.8498.6751-1.3674s-.0361-1.0433-.2972-1.4955c-.2083-.3617-.5086-.662-.8704-.8705s-.7723-.3178-1.19-.3168z"/><path d="m57.0977 27.3579c-.5226.0008-1.0302.1737-1.4444.492-.4142.3184-.7117.7643-.8464 1.2687-.1348.5044-.0992 1.0392.1011 1.5214s.5542.8849 1.0068 1.1457c.4527.2609.9788.3652 1.4968.297.518-.0683.9991-.3054 1.3685-.6746.3695-.3692.6068-.8498.6751-1.3674s-.0361-1.0433-.2971-1.4955c-.2088-.3613-.5092-.6613-.8709-.8697-.3617-.2085-.772-.318-1.1895-.3176z"/><path d="m50.4258 27.3579c-.5225.0008-1.0302.1737-1.4444.492-.4141.3184-.7116.7643-.8464 1.2687-.1347.5044-.0992 1.0392.1011 1.5214s.5542.8849 1.0068 1.1457c.4527.2609.9788.3652 1.4968.297.5181-.0683.9991-.3054 1.3686-.6746.3694-.3692.6067-.8498.6751-1.3674.0683-.5176-.0362-1.0433-.2972-1.4955-.2091-.3611-.5095-.6608-.8712-.8692-.3616-.2084-.7717-.3181-1.1892-.3181z"/><path d="m43.7559 27.3579c-.5226.0003-1.0305.1729-1.445.491s-.7123.7639-.8474 1.2683-.0998 1.0393.1003 1.5217c.2.4824.5538.8853 1.0064 1.1464.4526.261.9788.3656 1.4969.2975.5182-.0682.9993-.3052 1.3689-.6743.3697-.3692.6071-.8499.6754-1.3675.0684-.5177-.036-1.0435-.2971-1.4958-.2082-.3615-.5081-.6616-.8696-.87-.3614-.2085-.7715-.3179-1.1888-.3173z"/><path d="m132.343 7.41992c0-.46971-.14-.92888-.401-1.31941s-.632-.69487-1.067-.87454c-.434-.17966-.912-.22657-1.373-.13479s-.885.31812-1.217.6504-.558.75556-.65 1.2163c-.091.46074-.044.93823.136 1.37208s.485.80457.876 1.06525c.392.26068.851.39961 1.321.39923.63-.00103 1.234-.2516 1.679-.69674s.695-1.04851.696-1.67778z"/><path d="m133.263 4.74903c.47 0 .93-.13926 1.32-.40018.391-.26091.696-.63176.876-1.06565.18-.43388.227-.91132.135-1.37193s-.318-.88371-.65-1.21579c-.333-.332082-.756-.558232-1.217-.6498533-.461-.0916212-.939-.04459786-1.373.1351233-.434.179722-.806.484069-1.067.87456-.261.39048-.4.84957-.4 1.31921 0 .6296.251 1.23326.696 1.67846.446.4452 1.05.69553 1.68.69605z"/><path d="m126.673 15.2319c.471 0 .931-.1395 1.322-.4008.391-.2614.695-.6328.875-1.0673.179-.4344.226-.9123.133-1.3732-.092-.4609-.319-.884-.653-1.2157-.333-.3316-.757-.557-1.219-.6475-.462-.0906-.94-.0421-1.374.1391s-.804.4871-1.064.8788c-.26.3918-.398.8518-.396 1.3219.003.6279.255 1.2291.7 1.6721.445.4431 1.048.6921 1.676.6926z"/><path d="m125.757 18.5537c0-.4696-.14-.9287-.401-1.3192s-.632-.6948-1.066-.8746c-.434-.1797-.912-.2267-1.373-.1351s-.885.3178-1.217.6499-.559.7552-.65 1.2158c-.092.4606-.045.938.135 1.3719s.484.8047.875 1.0657c.391.2609.85.4001 1.32.4001.631-.0005 1.235-.2508 1.68-.696.446-.4452.696-1.0489.697-1.6785z"/><path d="m120.091 21.8774c-.47 0-.929.1393-1.32.4002s-.695.6318-.875 1.0657-.227.9113-.135 1.3719c.091.4606.318.8837.65 1.2158s.756.5582 1.217.6498c.461.0917.939.0446 1.373-.1351s.805-.4841 1.066-.8745c.261-.3905.401-.8496.401-1.3192-.001-.6296-.251-1.2333-.697-1.6785-.445-.4452-1.05-.6955-1.68-.6961z"/><path d="m116.798 27.3579c-.47 0-.929.1393-1.32.4002s-.695.6318-.875 1.0656c-.18.4339-.227.9114-.135 1.372.091.4606.318.8837.65 1.2158.332.332.756.5582 1.217.6498s.939.0446 1.373-.1351.805-.4841 1.066-.8746.401-.8495.401-1.3192c-.001-.6296-.251-1.2332-.697-1.6784-.445-.4452-1.05-.6956-1.68-.6961z"/><path d="m138.612 7.41993c0-.46964-.139-.92873-.4-1.31921-.261-.39049-.632-.69484-1.067-.87456-.434-.17972-.912-.22674-1.373-.13512s-.884.31777-1.217.64985c-.332.33208-.558.75518-.65 1.21579s-.045.93805.135 1.37193c.18.43389.485.80474.876 1.06565.39.26092.85.40018 1.32.40018.63-.00103 1.234-.25153 1.679-.69662.446-.44508.696-1.04845.697-1.67789z"/><path d="m139.529 15.2319c.47 0 .93-.1395 1.321-.4008.391-.2614.696-.6328.875-1.0673.18-.4344.226-.9123.134-1.3732-.093-.4609-.32-.884-.653-1.2157-.334-.3316-.758-.557-1.22-.6475-.461-.0906-.939-.0421-1.373.1391s-.805.4871-1.065.8788c-.26.3918-.398.8518-.396 1.3219.004.6277.256 1.2286.701 1.6716s1.048.6921 1.676.6931z"/><path d="m145.198 18.5537c0-.4697-.139-.9289-.4-1.3194-.262-.3905-.633-.6949-1.067-.8745-.435-.1797-.913-.2266-1.374-.1348-.461.0917-.884.3181-1.216.6504-.333.3322-.559.7555-.65 1.2163-.092.4607-.044.9382.136 1.3721.18.4338.485.8045.876 1.0652s.851.3996 1.321.3992c.63-.001 1.233-.2516 1.678-.6967s.696-1.0485.696-1.6778z"/><path d="m148.48 24.252c0-.4698-.14-.9289-.401-1.3195-.261-.3905-.633-.6948-1.067-.8745s-.912-.2266-1.373-.1348-.885.3181-1.217.6504-.559.7556-.65 1.2163-.044.9382.136 1.3721c.18.4338.485.8046.876 1.0652.391.2607.851.3997 1.321.3993.63-.0011 1.233-.2516 1.679-.6968.445-.4451.695-1.0485.696-1.6777z"/><path d="m149.408 27.3579c-.47 0-.93.1393-1.321.4002-.39.2609-.695.6318-.875 1.0656-.18.4339-.227.9114-.135 1.372s.318.8837.65 1.2158c.333.332.756.5582 1.217.6498s.939.0446 1.373-.1351.806-.4841 1.067-.8746.4-.8495.4-1.3192c0-.6296-.251-1.2332-.696-1.6784-.446-.4452-1.05-.6956-1.68-.6961z"/><path d="m80.0363.912601c-.5231.000077-1.0316.172619-1.4466.490869-.415.31826-.7133.76443-.8486 1.26933-.1354.5049-.1002 1.04032.1 1.52321.2003.48289.5544.88627 1.0074 1.14758.4531.26132.9798.36596 1.4985.29771.5186-.06826 1.0002-.3056 1.3701-.67521.3699-.36962.6074-.85086.6757-1.36908.0683-.51823-.0365-1.04448-.2981-1.49715-.2081-.36143-.5081-.66154-.8695-.87001-.3615-.20847-.7716-.317906-1.1889-.317249z"/><path d="m80.0339 7.48975c-.4164.00087-.8253.11041-1.1863.31777-.499.28778-.8762.74701-1.0614 1.2921s-.1658 1.13888.0547 1.67068.627.9654 1.1437 1.22c.5168.2545 1.1085.3127 1.665.1637.5564-.1491 1.0397-.4952 1.3597-.9739s.4549-1.0573.3795-1.62803c-.0753-.57071-.3557-1.09458-.789-1.474-.4333-.37943-.9898-.58852-1.5659-.58832z"/><path d="m80.0363 14.0693c-.5231.0001-1.0316.1727-1.4466.4909-.415.3183-.7133.7644-.8486 1.2693-.1354.5049-.1002 1.0404.1 1.5232.2003.4829.5544.8863 1.0074 1.1476.4531.2613.9798.366 1.4985.2977.5186-.0682 1.0002-.3056 1.3701-.6752s.6074-.8508.6757-1.3691c.0683-.5182-.0365-1.0444-.2981-1.4971-.2081-.3614-.5081-.6615-.8695-.87-.3615-.2085-.7716-.3179-1.1889-.3173z"/><path d="m80.0363 20.6475c-.5231 0-1.0316.1726-1.4466.4908-.415.3183-.7133.7645-.8486 1.2694-.1354.5049-.1002 1.0403.1 1.5232.2003.4829.5544.8862 1.0074 1.1476.4531.2613.9798.3659 1.4985.2977.5186-.0683 1.0002-.3056 1.3701-.6753.3699-.3696.6074-.8508.6757-1.369.0683-.5183-.0365-1.0445-.2981-1.4972-.2083-.3613-.5083-.6613-.8697-.8697-.3614-.2085-.7714-.318-1.1887-.3175z"/><path d="m106.727 27.3579c-.523.0008-1.031.1737-1.445.492-.414.3184-.711.7643-.846 1.2687-.135.5045-.099 1.0392.101 1.5214s.554.8849 1.007 1.1458c.452.2608.978.3651 1.497.2969.518-.0683.999-.3054 1.368-.6746.37-.3691.607-.8498.675-1.3674s-.036-1.0433-.297-1.4955c-.208-.3617-.509-.662-.87-.8705-.362-.2085-.773-.3178-1.19-.3168z"/><path d="m100.139 27.3579c-.5229.0003-1.0308.1729-1.4453.491-.4144.3181-.7123.7639-.8474 1.2683s-.0998 1.0393.1003 1.5217.5538.8853 1.0064 1.1464c.4526.261.9788.3656 1.497.2975.518-.0682.999-.3052 1.369-.6743.369-.3692.607-.8499.675-1.3675.069-.5177-.036-1.0435-.297-1.4958-.208-.3615-.508-.6616-.869-.87-.362-.2085-.772-.3179-1.189-.3173z"/><path d="m93.5558 27.3579c-.5231.0001-1.0316.1726-1.4466.4909-.415.3182-.7133.7644-.8486 1.2693s-.1002 1.0403.1001 1.5232c.2002.4829.5543.8863 1.0074 1.1476.453.2613.9797.366 1.4984.2977.5186-.0682 1.0003-.3056 1.3701-.6752.3699-.3696.6074-.8509.6757-1.3691s-.0365-1.0445-.2981-1.4971c-.2081-.3615-.5081-.6616-.8695-.87-.3614-.2085-.7716-.3179-1.1889-.3173z"/><path d="m86.9707 27.3579c-.5226.0003-1.0305.1729-1.445.491-.4144.3181-.7123.7639-.8473 1.2683-.1351.5044-.0999 1.0393.1002 1.5217s.5539.8853 1.0065 1.1464c.4526.261.9787.3656 1.4969.2975.5181-.0682.9993-.3052 1.3689-.6743.3696-.3692.607-.8499.6754-1.3675.0684-.5177-.0361-1.0435-.2972-1.4958-.2081-.3615-.5081-.6616-.8695-.87-.3614-.2085-.7716-.3179-1.1889-.3173z"/><path d="m106.727.912604c-.523.000755-1.031.173696-1.445.492026-.414.31832-.711.76425-.846 1.26868s-.099 1.03918.101 1.52139c.2.4822.554.88492 1.007 1.14574.452.26083.978.36519 1.497.29692.518-.06827.999-.30537 1.368-.67454.37-.36918.607-.84981.675-1.36742.068-.5176-.036-1.04327-.297-1.49554-.208-.36171-.509-.66201-.87-.87049-.362-.20849-.773-.317766-1.19-.316766z"/><path d="m100.052.912601c-.5232.000077-1.0317.172619-1.4467.490869-.415.31826-.7133.76443-.8486 1.26933s-.1002 1.04032.1001 1.52321c.2002.48289.5543.88627 1.0074 1.14758.453.26132.9797.36596 1.4988.29771.518-.06826 1-.3056 1.37-.67521.37-.36962.607-.85086.675-1.36908.069-.51823-.036-1.04448-.298-1.49715-.208-.36143-.508-.66154-.869-.87001-.362-.20847-.772-.317906-1.189-.317249z"/><path d="m93.3789.912604c-.5225.000755-1.0302.173696-1.4444.492026-.4141.31832-.7116.76425-.8464 1.26868-.1347.50443-.0992 1.03918.1011 1.52139.2003.4822.5542.88492 1.0069 1.14574.4526.26083.9787.36519 1.4968.29692.518-.06827.999-.30537 1.3685-.67454.3695-.36918.6068-.84981.6751-1.36742.0683-.5176-.0362-1.04327-.2972-1.49554-.2083-.36171-.5086-.66201-.8704-.87049-.3618-.20849-.7723-.317766-1.19-.316766z"/><path d="m86.7062.912636c-.5227.002219-1.0301.176564-1.4436.496044-.4135.31949-.71.76627-.8437 1.27118-.1337.50492-.097 1.03978.1043 1.52177s.556.88422 1.0092 1.1444c.4533.26018.9797.3638 1.4978.2948.5182-.06899.9991-.30674 1.3683-.67644.3692-.36969.6062-.85071.6741-1.36855.068-.51785-.0368-1.04364-.2982-1.49595-.209-.36286-.5104-.6639-.8737-.87246-.3634-.20855-.7755-.317173-1.1945-.314794z"/><path d="m100.138 14.0366c-.416.0014-.8248.1109-1.186.3178-.5.2881-.8781.748-1.0638 1.294s-.1664 1.1409.0544 1.6737.6279.9673 1.1455 1.2223c.5177.2551 1.1109.3134 1.6679.1641.558-.1493 1.042-.4961 1.362-.9757.321-.4796.456-1.0593.38-1.631s-.357-1.0964-.791-1.4764-.992-.5892-1.569-.5888z"/><path d="m93.4381 14.0366c-.4435.0002-.8782.1244-1.2547.3585-.3766.2342-.6801.569-.8762.9665-.196.3975-.2768.842-.2332 1.283s.2099.8611.48 1.2126.6333.6205 1.0484.7765c.4152.156.8658.1928 1.3008.1062s.8371-.293 1.1607-.5961c.3237-.303.556-.6905.6707-1.1186.0943-.3518.1063-.7206.0351-1.0779-.0712-.3572-.2237-.6933-.4457-.9822-.2221-.2889-.5076-.5229-.8346-.6839s-.6867-.2447-1.0513-.2446z"/><path d="m86.737 14.0366c-.4164.0009-.8253.1104-1.1863.3178-.499.2878-.8762.747-1.0614 1.2921s-.1657 1.1389.0548 1.6707c.2204.5318.6269.9654 1.1437 1.22.5167.2545 1.1084.3127 1.6649.1636.5565-.149 1.0397-.4952 1.3597-.9739.32-.4786.4549-1.0573.3795-1.628-.0753-.5707-.3557-1.0945-.789-1.474-.4332-.3794-.9898-.5885-1.5659-.5883z"/><path d="m181.544 15.3878c-.156-.2705-.363-.5076-.611-.6978-.247-.1902-.53-.3297-.832-.4104-.301-.0808-.616-.1013-.926-.0603-.309.0409-.608.1426-.878.2991-.545.3148-.943.8331-1.107 1.441-.163.6079-.078 1.2557.237 1.801.315.5451.835.9429 1.443 1.1059.609.1631 1.258.078 1.804-.2364.545-.3148.943-.8332 1.106-1.4411.164-.6079.078-1.2557-.236-1.801z"/><path d="m172.747 14.1982c-.524-.0006-1.034.1716-1.45.4899-.416.3184-.716.7651-.852 1.2708s-.101 1.0422.099 1.5262.554.8884 1.008 1.1506c.454.2621.982.3673 1.501.2992.52-.0681 1.003-.3057 1.373-.6759.371-.3702.609-.8523.678-1.3715.068-.5192-.037-1.0465-.299-1.5-.208-.3617-.508-.6621-.869-.8709-.362-.2088-.772-.3186-1.189-.3184z"/><path d="m166.008 14.1982c-.524-.0006-1.033.1716-1.45.4899-.416.3184-.715.7651-.851 1.2708s-.102 1.0422.098 1.5262c.201.484.555.8884 1.009 1.1506.454.2621.981.3673 1.501.2992s1.002-.3057 1.373-.6759.609-.8523.677-1.3715c.069-.5192-.036-1.0465-.298-1.5-.208-.3617-.508-.6621-.87-.8709-.361-.2088-.771-.3186-1.189-.3184z"/><path d="m139.606 21.9224c-.523.0002-1.032.1729-1.446.4911-.415.3183-.713.7643-.849 1.2691-.135.5048-.1 1.0401.1 1.5229s.554.8861 1.007 1.1475.98.3662 1.498.2982c.519-.068 1-.305 1.37-.6743s.608-.8502.677-1.3683c.069-.518-.036-1.0442-.297-1.497-.209-.3616-.509-.6618-.87-.8706-.362-.2087-.773-.3186-1.19-.3186z"/><path d="m133.1 21.9224c-.444.0006-.878.1251-1.254.3595-.376.2343-.68.5692-.875.9666-.196.3975-.277.8418-.233 1.2826s.21.8607.48 1.212.633.6202 1.048.7762.866.1929 1.3.1065c.435-.0863.837-.2925 1.161-.5952s.556-.6899.671-1.1177c.082-.301.103-.6153.062-.9245s-.143-.6073-.3-.8768c-.209-.3612-.509-.6611-.871-.8698s-.772-.3189-1.189-.3194z"/><path d="m126.594 21.9224c-.523.0002-1.031.1729-1.446.4911-.415.3183-.713.7643-.848 1.2691-.136.5048-.101 1.0401.1 1.5229.2.4828.554.8861 1.007 1.1475.452.2614.979.3662 1.497.2982.519-.068 1.001-.305 1.371-.6743s.607-.8502.676-1.3683c.069-.518-.035-1.0442-.297-1.497-.208-.3616-.509-.6618-.87-.8706-.362-.2087-.772-.3186-1.19-.3186z"/><path d="m80.0363 27.3579c-.5231.0001-1.0316.1726-1.4466.4909-.415.3182-.7133.7644-.8486 1.2693-.1354.5049-.1002 1.0403.1 1.5232.2003.4829.5544.8863 1.0074 1.1476.4531.2613.9798.366 1.4985.2977.5186-.0682 1.0002-.3056 1.3701-.6752s.6074-.8509.6757-1.3691-.0365-1.0445-.2981-1.4971c-.2081-.3615-.5081-.6616-.8695-.87-.3615-.2085-.7716-.3179-1.1889-.3173z"/><path d="m159.274 1.04102c-.524-.00017-1.033.17234-1.449.49076-.415.31842-.714.76496-.849 1.27034-.136.50538-.101 1.04134.1 1.52474.2.4834.554.88721 1.008 1.14879.453.26157.981.36629 1.5.29791.519-.06839 1.001-.30605 1.371-.67613.37-.37007.608-.85187.676-1.37064s-.037-1.04552-.299-1.49852c-.208-.36129-.508-.66129-.87-.86974-.361-.20845-.771-.31797-1.188-.31751z"/><path d="m159.275 7.62061c-.524.00008-1.032.17262-1.447.49087s-.713.76443-.849 1.26933c-.135.5049-.1 1.04029.1 1.52319.201.4829.555.8863 1.008 1.1476s.98.366 1.498.2977c.519-.0682 1.001-.3056 1.37-.6752.37-.3696.608-.8509.676-1.3691.068-.51821-.036-1.04447-.298-1.49713-.208-.36143-.508-.66154-.87-.87001-.361-.20847-.771-.31791-1.188-.31725z"/><path d="m159.274 14.1982c-.524-.0006-1.034.1716-1.45.4899-.416.3184-.716.7651-.852 1.2708s-.101 1.0422.099 1.5262.555.8884 1.008 1.1506c.454.2621.982.3673 1.502.2992.519-.0681 1.002-.3057 1.373-.6759.37-.3702.608-.8523.677-1.3715.068-.5192-.036-1.0465-.299-1.5-.208-.3617-.507-.6621-.869-.8709-.361-.2088-.771-.3186-1.189-.3184z"/><path d="m159.274 20.7778c-.417.0009-.826.1104-1.187.3178-.453.2614-.807.665-1.008 1.1482-.2.4832-.235 1.0189-.099 1.524.135.5051.434.9514.85 1.2694.415.3181.924.4902 1.447.4897.416-.0012.824-.1107 1.185-.3178.453-.2613.807-.6647 1.008-1.1477.2-.483.235-1.0186.1-1.5236-.136-.505-.434-.9512-.849-1.2695-.415-.3182-.924-.4906-1.447-.4905z"/><path d="m185.813 6.24804c.523-.0015 1.031-.1755 1.446-.495.414-.3195.711-.76664.845-1.27205.133-.50541.097-1.04083-.105-1.52319s-.557-.8847-1.011-1.14459c-.454-.2599-.982-.36281-1.5-.29279-.519.07003-1 .30908-1.368.68008-.369.37099-.605.85318-.671 1.37176s.04 1.04456.304 1.49633c.209.36026.51.65899.871.86607.362.20708.772.31517 1.189.31338z"/><path d="m188.286 15.3872c-.235-.4065-.585-.7344-1.007-.942-.421-.2077-.895-.2859-1.36-.2248-.466.0611-.904.2589-1.257.5682-.353.3094-.607.7164-.729 1.1698-.101.3772-.108.7736-.02 1.154.089.3804.27.7332.527 1.027.258.2938.584.5195.95.6573.366.1377.76.1832 1.147.1323.388-.0509.757-.1965 1.075-.4239s.574-.5297.747-.88.257-.7377.244-1.1281-.122-.7716-.317-1.1098z"/><path d="m188.707 7.5503c-.522.00075-1.03.1737-1.444.49202-.414.31833-.712.76426-.847 1.26869-.134.50443-.099 1.03919.101 1.52139.201.4822.555.8849 1.007 1.1457.453.2609.979.3652 1.497.297.518-.0683.999-.3054 1.369-.6746.369-.3692.606-.8498.675-1.3674.068-.51761-.037-1.04328-.298-1.49554-.208-.36171-.508-.66201-.87-.8705s-.772-.31776-1.19-.31676z"/><path d="m179.176 5.65331c.524.00024 1.034-.17232 1.45-.49091.415-.3186.715-.76541.85-1.27114.136-.50573.101-1.0421-.099-1.52592-.201-.48381-.555-.88803-1.009-1.14994-.454-.261907-.981-.366875-1.501-.298617-.52.068257-1.002.305927-1.373.676137-.37.37021-.608.85227-.677 1.3714-.068.51914.037 1.04632.299 1.49979.208.36154.509.66179.87.87055.362.20876.772.31866 1.19.31865z"/><path d="m172.54.912601c-.523.000077-1.031.172619-1.446.490869-.415.31826-.714.76443-.849 1.26933s-.1 1.04032.1 1.52321.554.88627 1.007 1.14758c.454.26132.98.36596 1.499.29771.519-.06826 1-.3056 1.37-.67521.37-.36962.607-.85086.676-1.36908.068-.51823-.037-1.04448-.298-1.49715-.209-.36143-.508-.66154-.87-.87001-.361-.20847-.771-.317906-1.189-.317249z"/><path d="m165.907.912601c-.523.000077-1.031.172619-1.446.490869-.415.31826-.714.76443-.849 1.26933s-.1 1.04032.1 1.52321.555.88627 1.008 1.14758c.453.26132.979.36596 1.498.29771.519-.06826 1-.3056 1.37-.67521.37-.36962.608-.85086.676-1.36908.068-.51823-.037-1.04448-.298-1.49715-.208-.36143-.508-.66154-.87-.87001-.361-.20847-.771-.317906-1.189-.317249z"/><path d="m159.271 27.3579c-.523.0001-1.032.1726-1.447.4909-.415.3182-.713.7644-.849 1.2693-.135.5049-.1 1.0403.101 1.5232.2.4829.554.8863 1.007 1.1476s.98.366 1.498.2977c.519-.0682 1.001-.3056 1.37-.6752.37-.3696.608-.8509.676-1.3691s-.036-1.0445-.298-1.4971c-.208-.3615-.508-.6616-.869-.87-.362-.2085-.772-.3179-1.189-.3173z"/><path d="m183.691 20.7778c-.524-.0003-1.032.1719-1.448.4899-.415.318-.714.764-.849 1.2689-.136.5049-.101 1.0404.099 1.5235s.554.8867 1.007 1.1482c.453.2616.98.3664 1.499.2983.518-.0681 1-.3053 1.37-.6749s.608-.8509.676-1.3692-.036-1.0447-.298-1.4974c-.208-.3613-.507-.6613-.868-.8698-.362-.2085-.771-.318-1.188-.3175z"/><path d="m188.707 27.3579c-.522.0008-1.03.1737-1.444.492-.414.3184-.712.7643-.847 1.2687-.134.5045-.099 1.0392.101 1.5214.201.4822.555.8849 1.007 1.1458.453.2608.979.3651 1.497.2969.518-.0683.999-.3054 1.369-.6746.369-.3691.606-.8498.675-1.3674.068-.5176-.037-1.0433-.298-1.4955-.208-.3617-.508-.662-.87-.8705s-.772-.3178-1.19-.3168z"/></g></svg>