<svg width="100" height="100" viewBox="0 0 100 100" fill="none" xmlns="http://www.w3.org/2000/svg">
<path d="M32.2912 37.0393L20.5415 48.7836C19.5364 49.7883 18.7391 50.9812 18.1951 52.2941C17.6511 53.607 17.3711 55.0143 17.3711 56.4355C17.3711 57.8566 17.6511 59.2639 18.1951 60.5768C18.7391 61.8897 19.5364 63.0826 20.5415 64.0874L32.2912 75.8316C34.3201 77.8599 37.0715 78.9993 39.9404 78.9993C42.8093 78.9993 45.5607 77.8599 47.5896 75.8316L59.3393 64.0874C60.3444 63.0826 61.1417 61.8897 61.6857 60.5768C62.2297 59.2639 62.5097 57.8566 62.5097 56.4355C62.5097 55.0143 62.2297 53.607 61.6857 52.2941C61.1417 50.9812 60.3444 49.7883 59.3393 48.7836L47.5896 37.0393C45.5607 35.011 42.8093 33.8716 39.9404 33.8716C37.0715 33.8716 34.3201 35.011 32.2912 37.0393V37.0393Z" fill="#DDE5E5"/>
<path d="M64.7472 75.8326L59.9922 71.083L63.1622 67.913C64.6695 66.4059 65.8652 64.6168 66.6809 62.6476C67.4966 60.6785 67.9165 58.5679 67.9165 56.4365C67.9165 54.305 67.4966 52.1945 66.6809 50.2253C65.8652 48.2562 64.6695 46.467 63.1622 44.96L59.9922 41.7954L64.7472 37.0349C66.7761 35.0066 69.5276 33.8672 72.3964 33.8672C75.2653 33.8672 78.0167 35.0066 80.0456 37.0349L91.7953 48.7846C92.8004 49.7893 93.5978 50.9822 94.1417 52.2951C94.6857 53.6081 94.9657 55.0153 94.9657 56.4365C94.9657 57.8576 94.6857 59.2649 94.1417 60.5778C93.5978 61.8908 92.8004 63.0837 91.7953 64.0884L80.0456 75.8326C78.0167 77.8609 75.2653 79.0004 72.3964 79.0004C69.5276 79.0004 66.7761 77.8609 64.7472 75.8326V75.8326Z" fill="#DDE5E5"/>
<path d="M20.5871 25.0308L7.42005 38.1917C6.29369 39.3176 5.40018 40.6544 4.79057 42.1257C4.18095 43.597 3.86719 45.174 3.86719 46.7666C3.86719 48.3592 4.18095 49.9362 4.79057 51.4075C5.40018 52.8789 6.29369 54.2156 7.42005 55.3416L20.5871 68.5025C22.8607 70.7755 25.944 72.0523 29.1589 72.0523C32.3739 72.0523 35.4572 70.7755 37.7308 68.5025L50.8978 55.3416C52.0242 54.2156 52.9177 52.8789 53.5273 51.4075C54.1369 49.9362 54.4507 48.3592 54.4507 46.7666C54.4507 45.174 54.1369 43.597 53.5273 42.1257C52.9177 40.6544 52.0242 39.3176 50.8978 38.1917L37.7308 25.0308C35.4572 22.7578 32.3739 21.481 29.1589 21.481C25.944 21.481 22.8607 22.7578 20.5871 25.0308V25.0308ZM11.7121 42.4837L24.873 29.3107C26.0098 28.1742 27.5515 27.5358 29.1589 27.5358C30.7664 27.5358 32.3081 28.1742 33.4449 29.3107L46.6179 42.4837C47.7544 43.6206 48.3929 45.1622 48.3929 46.7697C48.3929 48.3771 47.7544 49.9188 46.6179 51.0556L33.4509 64.2166C32.3141 65.353 30.7725 65.9915 29.165 65.9915C27.5575 65.9915 26.0159 65.353 24.8791 64.2166L11.7121 51.0556C10.5756 49.9188 9.93714 48.3771 9.93714 46.7697C9.93714 45.1622 10.5756 43.6206 11.7121 42.4837V42.4837Z" fill="#231F20"/>
<path d="M56.9615 68.5029L51.6328 63.1803L55.1852 59.6279C55.4277 59.3854 55.6702 59.1308 55.9006 58.8701L61.2474 64.217C62.3842 65.3534 63.9259 65.9919 65.5333 65.9919C67.1408 65.9919 68.6825 65.3534 69.8193 64.217L82.9863 51.056C84.1228 49.9192 84.7612 48.3776 84.7612 46.7701C84.7612 45.1626 84.1228 43.621 82.9863 42.4841L69.8193 29.3111C68.6825 28.1746 67.1408 27.5362 65.5333 27.5362C63.9259 27.5362 62.3842 28.1746 61.2474 29.3111L55.9006 34.6579C55.6693 34.3986 55.4308 34.1459 55.1852 33.9001L51.6328 30.3538L56.9615 25.0191C59.2351 22.7461 62.3184 21.4692 65.5333 21.4692C68.7483 21.4692 71.8316 22.7461 74.1052 25.0191L87.2722 38.1861C88.3986 39.312 89.2921 40.6488 89.9017 42.1201C90.5113 43.5914 90.8251 45.1684 90.8251 46.761C90.8251 48.3536 90.5113 49.9306 89.9017 51.4019C89.2921 52.8732 88.3986 54.21 87.2722 55.3359L74.1052 68.4968C71.8316 70.7698 68.7483 72.0467 65.5333 72.0467C62.3184 72.0467 59.2351 70.7698 56.9615 68.4968V68.5029Z" fill="#231F20"/>
</svg>
